<svg width="50" height="50" viewBox="0 0 50 50" fill="none" xmlns="http://www.w3.org/2000/svg">
<path d="M37.5001 12.4999C37.1094 12.1093 36.5796 11.8899 36.0272 11.8899C35.4748 11.8899 34.945 12.1093 34.5543 12.4999L25.0001 22.054L15.4459 12.4999C15.0553 12.1093 14.5255 11.8899 13.973 11.8899C13.4206 11.8899 12.8908 12.1093 12.5001 12.4999C12.1095 12.8905 11.8901 13.4204 11.8901 13.9728C11.8901 14.5252 12.1095 15.055 12.5001 15.4457L22.0543 24.9999L12.5001 34.554C12.1095 34.9447 11.8901 35.4745 11.8901 36.0269C11.8901 36.5794 12.1095 37.1092 12.5001 37.4999C12.8908 37.8904 13.4206 38.1098 13.973 38.1098C14.5255 38.1098 15.0553 37.8904 15.4459 37.4999L25.0001 27.9457L34.5543 37.4999C34.945 37.8904 35.4748 38.1098 36.0272 38.1098C36.5796 38.1098 37.1094 37.8904 37.5001 37.4999C37.8907 37.1092 38.1101 36.5794 38.1101 36.0269C38.1101 35.4745 37.8907 34.9447 37.5001 34.554L27.9459 24.9999L37.5001 15.4457C37.8907 15.055 38.1101 14.5252 38.1101 13.9728C38.1101 13.4204 37.8907 12.8905 37.5001 12.4999V12.4999Z" fill="#121011"/>
</svg>
