<svg width="40" height="40" viewBox="0 0 40 40" fill="none" xmlns="http://www.w3.org/2000/svg">
<path d="M8.5 25C8.5 24.2 5.5 22 4 21L4.5 19L7 16L8.5 12V9.5L11 8H15L16.5 6L20.5 4.5L25.5 8L31.5 9.5L32.5 15L35.5 20L33 25L30.5 31.5L25 32.5L19.5 36L16 32.5L11 32L8.5 29.5V25Z" fill="#FFC91E" stroke="black"/>
<path d="M7.99156 11.7599C7.99156 9.67823 9.67822 7.99156 11.7599 7.9899H13.4749C14.4699 7.9899 15.4232 7.5949 16.1299 6.8949L17.3282 5.6949C18.7966 4.21823 21.1832 4.21156 22.6599 5.6799L22.6616 5.68156L22.6766 5.6949L23.8766 6.8949C24.5832 7.59656 25.5366 7.9899 26.5316 7.9899H28.2449C30.3266 7.9899 32.0149 9.67656 32.0149 11.7599V13.4716C32.0149 14.4666 32.4082 15.4216 33.1099 16.1282L34.3099 17.3282C35.7866 18.7966 35.7949 21.1832 34.3266 22.6599L34.3249 22.6616L34.3099 22.6766L33.1099 23.8766C32.4082 24.5816 32.0149 25.5349 32.0149 26.5299V28.2449C32.0149 30.3266 30.3282 32.0132 28.2466 32.0132H28.2449H26.5282C25.5332 32.0132 24.5782 32.4082 23.8732 33.1099L22.6732 34.3082C21.2066 35.7849 18.8216 35.7932 17.3449 34.3282C17.3432 34.3266 17.3416 34.3249 17.3399 34.3232L17.3249 34.3082L16.1266 33.1099C15.4216 32.4082 14.4666 32.0149 13.4716 32.0132H11.7599C9.67822 32.0132 7.99156 30.3266 7.99156 28.2449V26.5266C7.99156 25.5316 7.59656 24.5782 6.89489 23.8732L5.69656 22.6732C4.21989 21.2066 4.21156 18.8216 5.67822 17.3449C5.67822 17.3432 5.67989 17.3416 5.68156 17.3399L5.69656 17.3249L6.89489 16.1249C7.59656 15.4182 7.99156 14.4649 7.99156 13.4682V11.7599" stroke="#121011" stroke-width="3" stroke-linecap="round" stroke-linejoin="round"/>
<path d="M15.0001 20.0082L18.1535 23.1665L24.6501 16.6665" stroke="#121011" stroke-width="3" stroke-linecap="round" stroke-linejoin="round"/>
</svg>
