<svg width="48" height="48" viewBox="0 0 48 48" fill="none" xmlns="http://www.w3.org/2000/svg">
<path d="M18.3144 41.5428V35.4093C18.3144 33.8493 19.5862 32.5817 21.162 32.5712H26.9342C28.5175 32.5712 29.801 33.8419 29.801 35.4093V35.4093V41.5619C29.8006 42.8864 30.8685 43.969 32.2061 44H36.0542C39.8902 44 43 40.9214 43 37.1237V37.1237V19.6757C42.9795 18.1817 42.271 16.7787 41.076 15.8661L27.9154 5.3706C25.6099 3.54313 22.3324 3.54313 20.0268 5.3706L6.92405 15.8851C5.72452 16.794 5.01477 18.1993 5 19.6947V37.1237C5 40.9214 8.10975 44 11.9458 44H15.7939C17.1647 44 18.2759 42.8999 18.2759 41.5428V41.5428" stroke="#121011" stroke-width="5" stroke-linecap="round" stroke-linejoin="round"/>
</svg>
