<svg width="40" height="40" viewBox="0 0 40 40" fill="none" xmlns="http://www.w3.org/2000/svg">
<path d="M32.2081 15.7803C32.2081 15.7803 31.3031 27.0053 30.7781 31.7336C30.5281 33.9919 29.1331 35.3153 26.8481 35.3569C22.4997 35.4353 18.1464 35.4403 13.7997 35.3486C11.6014 35.3036 10.2297 33.9636 9.98473 31.7453C9.4564 26.9753 8.5564 15.7803 8.5564 15.7803" stroke="#121011" stroke-width="3" stroke-linecap="round" stroke-linejoin="round"/>
<path d="M34.5136 10.3995H6.25024" stroke="#121011" stroke-width="3" stroke-linecap="round" stroke-linejoin="round"/>
<path d="M29.0675 10.3995C27.7591 10.3995 26.6325 9.47447 26.3758 8.19281L25.9708 6.16614C25.7208 5.23114 24.8741 4.58447 23.9091 4.58447H16.8541C15.8891 4.58447 15.0425 5.23114 14.7925 6.16614L14.3875 8.19281C14.1308 9.47447 13.0041 10.3995 11.6958 10.3995" stroke="#121011" stroke-width="3" stroke-linecap="round" stroke-linejoin="round"/>
</svg>
