<svg width="40" height="40" viewBox="0 0 40 40" fill="none" xmlns="http://www.w3.org/2000/svg">
<g clip-path="url(#clip0_121_9587)">
<path d="M38.7848 15.6981C36.1998 11.4881 30.3198 4.4248 19.9998 4.4248C9.67984 4.4248 3.79984 11.4881 1.21484 15.6981C0.415721 16.9906 -0.00756836 18.4802 -0.00756836 19.9998C-0.00756836 21.5194 0.415721 23.009 1.21484 24.3015C3.79984 28.5115 9.67984 35.5748 19.9998 35.5748C30.3198 35.5748 36.1998 28.5115 38.7848 24.3015C39.584 23.009 40.0073 21.5194 40.0073 19.9998C40.0073 18.4802 39.584 16.9906 38.7848 15.6981ZM35.9432 22.5565C33.7232 26.1665 28.6982 32.2415 19.9998 32.2415C11.3015 32.2415 6.27651 26.1665 4.05651 22.5565C3.58173 21.7882 3.33026 20.9029 3.33026 19.9998C3.33026 19.0967 3.58173 18.2114 4.05651 17.4431C6.27651 13.8331 11.3015 7.75814 19.9998 7.75814C28.6982 7.75814 33.7232 13.8265 35.9432 17.4431C36.4179 18.2114 36.6694 19.0967 36.6694 19.9998C36.6694 20.9029 36.4179 21.7882 35.9432 22.5565Z" fill="#121011"/>
<path d="M19.9996 11.6665C18.3514 11.6665 16.7403 12.1552 15.3698 13.0709C13.9994 13.9866 12.9313 15.2881 12.3006 16.8108C11.6699 18.3335 11.5048 20.0091 11.8264 21.6256C12.1479 23.2421 12.9416 24.727 14.107 25.8924C15.2725 27.0578 16.7573 27.8515 18.3738 28.173C19.9904 28.4946 21.6659 28.3296 23.1886 27.6988C24.7113 27.0681 26.0128 26 26.9285 24.6296C27.8442 23.2592 28.3329 21.648 28.3329 19.9998C28.3303 17.7905 27.4515 15.6724 25.8892 14.1102C24.327 12.548 22.2089 11.6692 19.9996 11.6665ZM19.9996 24.9998C19.0107 24.9998 18.044 24.7066 17.2217 24.1572C16.3995 23.6078 15.7586 22.8269 15.3802 21.9133C15.0018 20.9996 14.9027 19.9943 15.0957 19.0244C15.2886 18.0545 15.7648 17.1636 16.4641 16.4643C17.1633 15.765 18.0542 15.2888 19.0241 15.0959C19.9941 14.903 20.9994 15.002 21.913 15.3804C22.8266 15.7589 23.6075 16.3997 24.1569 17.222C24.7064 18.0442 24.9996 19.0109 24.9996 19.9998C24.9996 21.3259 24.4728 22.5977 23.5351 23.5354C22.5974 24.4731 21.3257 24.9998 19.9996 24.9998Z" fill="#121011"/>
</g>
<defs>
<clipPath id="clip0_121_9587">
<rect width="40" height="40" fill="white"/>
</clipPath>
</defs>
</svg>
