<svg width="40" height="40" viewBox="0 0 40 40" fill="none" xmlns="http://www.w3.org/2000/svg">
<path d="M19.1539 4.64832H12.9222C7.7972 4.64832 4.58386 8.27665 4.58386 13.4133V27.27C4.58386 32.4066 7.7822 36.035 12.9222 36.035H27.6289C32.7705 36.035 35.9689 32.4066 35.9689 27.27V20.5566" stroke="#121011" stroke-width="3" stroke-linecap="round" stroke-linejoin="round"/>
<path fill-rule="evenodd" clip-rule="evenodd" d="M14.713 18.2015L27.168 5.74648C28.7197 4.19648 31.2347 4.19648 32.7864 5.74648L34.8147 7.77482C36.3664 9.32648 36.3664 11.8432 34.8147 13.3932L22.2997 25.9082C21.6214 26.5865 20.7014 26.9682 19.7414 26.9682H13.498L13.6547 20.6682C13.678 19.7415 14.0564 18.8582 14.713 18.2015Z" stroke="#121011" stroke-width="3" stroke-linecap="round" stroke-linejoin="round"/>
<path d="M25.2754 7.67084L32.8854 15.2808" stroke="#121011" stroke-width="3" stroke-linecap="round" stroke-linejoin="round"/>
</svg>
