<svg width="80" height="80" viewBox="0 0 80 80" fill="none" xmlns="http://www.w3.org/2000/svg">
<path d="M15.9831 23.52C15.9831 19.3567 19.3564 15.9834 23.5198 15.98H26.9498C28.9398 15.98 30.8464 15.19 32.2598 13.79L34.6564 11.39C37.5931 8.43671 42.3664 8.42337 45.3198 11.36L45.3231 11.3634L45.3531 11.39L47.7531 13.79C49.1664 15.1934 51.0731 15.98 53.0631 15.98H56.4898C60.6531 15.98 64.0298 19.3534 64.0298 23.52V26.9434C64.0298 28.9334 64.8164 30.8434 66.2198 32.2567L68.6198 34.6567C71.5731 37.5934 71.5898 42.3667 68.6531 45.32L68.6498 45.3234L68.6198 45.3534L66.2198 47.7534C64.8164 49.1634 64.0298 51.07 64.0298 53.06V56.49C64.0298 60.6534 60.6564 64.0267 56.4931 64.0267H56.4898H53.0564C51.0664 64.0267 49.1564 64.8167 47.7464 66.22L45.3464 68.6167C42.4131 71.57 37.6431 71.5867 34.6898 68.6567C34.6864 68.6534 34.6831 68.65 34.6798 68.6467L34.6498 68.6167L32.2531 66.22C30.8431 64.8167 28.9331 64.03 26.9431 64.0267H23.5198C19.3564 64.0267 15.9831 60.6534 15.9831 56.49V53.0534C15.9831 51.0634 15.1931 49.1567 13.7898 47.7467L11.3931 45.3467C8.43978 42.4134 8.42312 37.6434 11.3564 34.69C11.3564 34.6867 11.3598 34.6834 11.3631 34.68L11.3931 34.65L13.7898 32.25C15.1931 30.8367 15.9831 28.93 15.9831 26.9367V23.52" stroke="#121011" stroke-width="6" stroke-linecap="round" stroke-linejoin="round"/>
<path d="M30.0002 40.0168L36.3069 46.3335L49.3002 33.3335" stroke="#121011" stroke-width="6" stroke-linecap="round" stroke-linejoin="round"/>
</svg>
