<svg width="875" height="994" viewBox="0 0 875 994" fill="none" xmlns="http://www.w3.org/2000/svg">
<path d="M826.703 481.314C775.724 328.386 612.998 354.202 580.854 196.839C545.442 23.5053 404.309 -42.6818 272.718 27.7743C141.145 98.212 236.995 332.158 103.716 433.417C-100.969 588.921 31.1031 875.989 208.714 875.989C463.896 875.989 396.084 1015.61 604.745 990.349C763.749 971.121 902.47 708.598 826.703 481.314Z" fill="white"/>
<path d="M572 278.162H685.618C685.618 278.162 675.571 259.878 646.325 262.539C618.393 265.081 616.973 253.545 602.772 252.124C588.57 250.704 576.735 261.592 572 278.162Z" fill="#D0CFCF"/>
<path d="M288.035 523.472C288.035 523.472 276.652 529.629 293.224 553.401C309.795 577.173 320.578 588.588 320.578 588.588C320.578 588.588 323.711 594.206 318.841 595.816C313.972 597.427 302.726 597.188 301.344 603.611C299.909 610.271 305.341 615.619 315.403 619.58C325.467 623.54 347.196 633.027 349.157 633.893C351.084 634.743 353.244 637.259 350.103 638.888C346.961 640.518 322.569 646.512 326.104 657.917C329.641 669.322 359.489 675.748 362.74 676.514C365.988 677.279 366.907 678.485 366.888 680.213C366.871 681.941 358.482 683.184 351.613 685.173C344.744 687.162 337.129 690.673 339.723 697.082C342.315 703.491 361.074 715.121 402.506 713.493L421.656 711.482L429.81 693.946C444.975 655.353 440.161 633.813 434.961 629.258C429.762 624.701 423.942 630.739 419.805 636.571C415.668 642.403 411.735 649.916 410.097 649.365C408.459 648.814 407.623 647.551 407.968 644.23C408.314 640.908 412.06 610.608 402.454 603.516C392.846 596.424 379.164 617.491 376.591 619.92C374.02 622.351 372.352 619.483 372.185 617.385C372.012 615.248 370.201 591.607 369.769 580.802C369.339 569.995 366.075 563.107 359.313 562.272C352.793 561.467 349.32 572.165 346.197 576.235C343.075 580.304 338.8 575.498 338.8 575.498C338.8 575.498 331.568 561.562 314.566 538.094C297.566 514.626 287.812 523.617 287.812 523.617" fill="#D0CFCF"/>
<path d="M423.261 715.828C410.844 698.544 389.29 667.454 370.645 640.857C352.007 614.27 335.112 590.212 322.783 572.868C316.621 564.216 311.629 557.209 308.161 552.341C306.447 549.933 305.113 548.054 304.188 546.757C303.751 546.129 303.41 545.644 303.167 545.295C302.94 544.963 302.835 544.785 302.835 544.785C302.835 544.785 302.972 544.94 303.215 545.258C303.471 545.599 303.825 546.072 304.285 546.684C305.228 547.966 306.595 549.822 308.347 552.203C311.871 557 316.918 563.976 323.125 572.62C335.543 589.903 352.496 613.924 371.132 640.511C389.776 667.108 411.274 698.235 423.601 715.579" fill="#6A6F7E"/>
<path d="M317.06 604.577C317.069 604.537 317.559 604.606 318.441 604.764C319.322 604.919 320.59 605.18 322.154 605.517C325.28 606.2 329.574 607.25 334.29 608.496C338.936 609.742 343.139 610.867 346.353 611.729C347.804 612.108 349.028 612.429 350.013 612.685C350.879 612.906 351.354 613.05 351.345 613.089C351.337 613.129 350.846 613.065 349.963 612.913C349.081 612.756 347.811 612.493 346.251 612.139C343.13 611.427 338.852 610.319 334.136 609.073C329.482 607.862 325.273 606.767 322.054 605.928C320.601 605.557 319.374 605.242 318.387 604.99C317.526 604.764 317.051 604.617 317.06 604.577Z" fill="#6A6F7E"/>
<path d="M352.482 611.691C352.32 611.657 354.098 602.709 356.451 591.709C358.805 580.705 360.844 571.816 361.006 571.851C361.167 571.885 359.391 580.831 357.037 591.835C354.684 602.835 352.645 611.726 352.482 611.691Z" fill="#6A6F7E"/>
<path d="M379.266 653.818C379.23 653.797 379.451 653.341 379.878 652.534C380.369 651.622 380.982 650.485 381.711 649.132C383.254 646.258 385.368 642.28 387.54 637.807C389.722 633.336 391.557 629.222 392.86 626.232C393.476 624.826 393.994 623.64 394.409 622.692C394.778 621.857 395.001 621.403 395.041 621.418C395.079 621.434 394.93 621.916 394.626 622.778C394.322 623.64 393.859 624.878 393.253 626.395C392.046 629.431 390.268 633.585 388.079 638.069C385.902 642.557 383.723 646.514 382.081 649.339C381.255 650.749 380.574 651.881 380.08 652.652C379.589 653.424 379.302 653.839 379.266 653.818Z" fill="#6A6F7E"/>
<path d="M345.81 654.435C345.809 654.394 346.273 654.34 347.115 654.278C348.084 654.221 349.277 654.153 350.682 654.072C353.694 653.924 357.856 653.761 362.456 653.616C367.056 653.473 371.222 653.376 374.238 653.336C375.646 653.329 376.838 653.324 377.809 653.319C378.653 653.329 379.121 653.353 379.123 653.395C379.124 653.436 378.66 653.49 377.818 653.552C376.849 653.607 375.656 653.677 374.252 653.758C371.238 653.906 367.075 654.069 362.475 654.214C357.877 654.357 353.711 654.454 350.695 654.494C349.289 654.501 348.095 654.506 347.124 654.509C346.279 654.501 345.812 654.477 345.81 654.435Z" fill="#6A6F7E"/>
<path d="M364.732 694.63C364.73 694.589 365.326 694.525 366.405 694.445C367.595 694.373 369.131 694.278 370.975 694.164C374.836 693.953 380.168 693.7 386.062 693.46C391.957 693.22 397.294 693.035 401.158 692.932C403.005 692.895 404.543 692.864 405.736 692.84C406.817 692.831 407.415 692.847 407.417 692.888C407.419 692.93 406.823 692.994 405.744 693.073C404.554 693.146 403.018 693.241 401.174 693.355C397.313 693.566 391.979 693.818 386.085 694.058C380.192 694.298 374.856 694.483 370.991 694.587C369.144 694.623 367.606 694.654 366.413 694.679C365.332 694.685 364.732 694.672 364.732 694.63Z" fill="#6A6F7E"/>
<path d="M406.384 692.643C406.347 692.624 406.61 692.038 407.118 690.998C407.678 689.864 408.407 688.383 409.287 686.602C411.113 682.888 413.615 677.749 416.218 671.999C418.83 666.249 421.056 660.984 422.642 657.162C423.406 655.325 424.039 653.803 424.524 652.635C424.973 651.567 425.24 650.984 425.278 650.998C425.316 651.014 425.124 651.624 424.742 652.719C424.36 653.813 423.783 655.387 423.036 657.319C421.55 661.186 419.38 666.486 416.764 672.246C414.156 678.007 411.59 683.125 409.665 686.794C408.697 688.625 407.901 690.101 407.325 691.107C406.752 692.114 406.42 692.662 406.384 692.643Z" fill="#6A6F7E"/>
<path d="M567.077 437.628C546.504 414.565 548.484 381.269 556.267 352.763C557.565 348.004 558.237 342.821 561.515 339.153C564.795 335.486 570.799 333.87 574.617 336.908C577.782 339.429 578.353 343.941 579.534 347.84C581.105 353.027 584.162 357.736 588.24 361.251C590.919 363.559 594.47 365.424 597.879 364.475C602.557 363.172 604.399 357.572 605.499 352.792C607.549 343.886 609.602 334.98 611.651 326.077C612.752 321.299 613.891 316.425 616.448 312.248C619.004 308.071 623.281 304.641 628.119 304.444C632.959 304.249 637.951 308.194 637.804 313.091C637.742 315.129 636.869 317.054 636.533 319.063C636.196 321.076 636.6 323.485 638.35 324.482C640.122 325.493 642.351 324.593 644.108 323.534C650.173 319.882 654.986 314.468 659.57 309.037C664.155 303.606 668.682 298.006 674.396 293.81C680.109 289.615 687.275 286.915 694.201 288.146C701.127 289.378 707.406 295.319 707.545 302.436C707.683 309.573 702.143 315.467 696.582 319.901C688.335 326.48 679.147 331.847 669.403 335.785C667.645 336.497 665.743 337.262 664.749 338.894C662.959 341.83 665.224 345.702 668.117 347.492C671.393 349.519 675.34 350.063 678.955 351.384C682.572 352.702 686.213 355.299 686.788 359.148C687.586 364.487 682.299 368.633 677.491 371.029C667.868 375.83 657.438 378.952 646.799 380.221C642.985 380.673 639.024 380.926 635.61 382.721C632.195 384.518 629.472 388.401 630.386 392.166C631.3 395.937 635.434 398.052 639.271 398.238C643.108 398.428 646.871 397.212 650.688 396.72C657.832 395.798 666.19 398.256 669.048 404.917C670.927 409.296 669.94 414.54 667.493 418.65C665.046 422.759 661.309 425.912 657.467 428.727C644.039 438.566 628.235 445.306 611.775 446.977C595.315 448.648 580.884 446.736 567.077 437.628Z" fill="#D0CFCF"/>
<path d="M571.245 440.4C574.983 429.261 571.074 434.853 578.764 421.369C586.429 407.869 596.058 393.766 606.636 379.362C609.294 375.771 611.921 372.223 614.507 368.726C617.099 365.242 619.669 361.784 622.392 358.56C627.81 352.085 633.512 346.272 639.099 340.924C644.684 335.571 650.179 330.696 655.349 326.176C660.533 321.664 665.442 317.549 670.078 313.99C679.332 306.836 687.462 301.958 693.18 298.839C696.038 297.27 698.293 296.124 699.833 295.369C700.572 295.013 701.153 294.731 701.588 294.52C701.986 294.335 702.193 294.247 702.2 294.259C702.209 294.273 702.015 294.391 701.63 294.603C701.203 294.835 700.634 295.141 699.914 295.531C698.402 296.338 696.174 297.532 693.346 299.146C687.688 302.359 679.639 307.301 670.464 314.5C665.865 318.082 660.991 322.213 655.838 326.744C650.692 331.287 645.223 336.176 639.667 341.531C634.112 346.882 628.444 352.687 623.066 359.134C620.364 362.344 617.82 365.773 615.225 369.268C612.639 372.764 610.016 376.312 607.36 379.901C596.792 394.293 587.165 408.347 579.483 421.786C571.777 435.205 575.65 429.534 571.848 440.607" fill="#6A6F7E"/>
<path d="M622.652 358.584C622.589 358.579 622.6 357.817 622.667 356.438C622.729 355.059 622.883 353.07 623.111 350.615C623.562 345.704 624.416 338.946 625.385 331.496C626.356 324.043 627.111 317.29 627.485 312.388C627.678 309.938 627.817 307.95 627.893 306.578C627.977 305.205 628.055 304.444 628.117 304.444C628.179 304.444 628.221 305.206 628.243 306.585C628.274 307.964 628.233 309.962 628.119 312.426C627.906 317.358 627.25 324.149 626.277 331.608C625.302 338.956 624.418 345.604 623.744 350.684C623.453 352.98 623.21 354.916 623.014 356.469C622.84 357.834 622.714 358.589 622.652 358.584Z" fill="#6A6F7E"/>
<path d="M686.707 361.65C686.695 361.712 685.798 361.607 684.191 361.363C682.584 361.13 680.26 360.781 677.376 360.442C671.614 359.716 663.619 358.996 654.765 358.584C645.907 358.19 637.875 358.173 632.066 358.33C629.159 358.387 626.809 358.498 625.183 358.564C623.557 358.636 622.657 358.646 622.65 358.584C622.645 358.52 623.538 358.392 625.161 358.209C626.781 358.036 629.133 357.827 632.045 357.686C637.865 357.364 645.926 357.278 654.811 357.674C663.692 358.087 671.708 358.913 677.465 359.804C680.348 360.226 682.663 360.673 684.255 361.016C685.846 361.366 686.719 361.588 686.707 361.65Z" fill="#6A6F7E"/>
<path d="M579.785 420.419C579.754 420.424 579.671 420.134 579.541 419.572C579.4 418.905 579.227 418.09 579.018 417.105C578.572 414.96 578.01 411.84 577.366 407.976C576.072 400.248 574.618 389.515 573.175 377.653C571.731 365.785 570.38 355.054 569.248 347.311C568.686 343.544 568.225 340.445 567.881 338.142C567.737 337.143 567.62 336.321 567.523 335.645C567.451 335.073 567.428 334.769 567.459 334.762C567.49 334.759 567.571 335.049 567.703 335.612C567.845 336.279 568.017 337.091 568.226 338.078C568.671 340.223 569.234 343.343 569.878 347.207C571.173 354.935 572.626 365.667 574.069 377.535C575.513 389.4 576.865 400.129 577.995 407.874C578.558 411.639 579.018 414.739 579.362 417.041C579.505 418.04 579.623 418.864 579.719 419.539C579.792 420.11 579.816 420.414 579.785 420.419Z" fill="#6A6F7E"/>
<path d="M667.519 413.457C667.521 413.488 667.213 413.536 666.631 413.599C665.943 413.661 665.098 413.739 664.075 413.832C661.72 414.024 658.542 414.281 654.676 414.592C646.74 415.237 635.789 416.253 623.692 417.392C611.589 418.532 600.618 419.448 592.667 419.928C588.691 420.17 585.472 420.333 583.246 420.4C582.218 420.424 581.371 420.445 580.682 420.462C580.094 420.467 579.785 420.452 579.785 420.421C579.783 420.39 580.091 420.341 580.673 420.277C581.359 420.215 582.204 420.139 583.227 420.046C585.582 419.854 588.759 419.598 592.624 419.285C600.561 418.643 611.513 417.625 623.616 416.486C635.715 415.346 646.685 414.43 654.637 413.951C658.613 413.709 661.83 413.547 664.06 413.479C665.088 413.455 665.934 413.433 666.624 413.417C667.21 413.41 667.517 413.424 667.519 413.457Z" fill="#6A6F7E"/>
<path d="M735.575 589.315C735.594 589.324 735.495 589.599 735.286 590.122C735.049 590.698 734.737 591.462 734.341 592.426C733.463 594.494 732.221 597.42 730.653 601.111C727.406 608.626 722.817 619.241 717.339 631.916L717.258 632.102L717.054 632.135C704.771 634.164 690.444 636.531 675.203 639.049C670.427 639.83 665.741 640.596 661.174 641.344L660.536 641.447L660.695 640.822C664.106 627.361 667.246 614.968 669.914 604.439L670.111 604.842C659.893 600.274 651.461 596.506 645.518 593.85C642.632 592.535 640.353 591.496 638.732 590.758C637.998 590.411 637.414 590.136 636.965 589.924C636.567 589.73 636.367 589.623 636.374 589.606C636.38 589.59 636.596 589.665 637.006 589.827C637.466 590.015 638.064 590.261 638.815 590.568C640.453 591.265 642.759 592.244 645.677 593.487C651.649 596.077 660.123 599.753 670.391 604.206L670.661 604.321L670.59 604.608C667.965 615.146 664.873 627.553 661.518 641.028L661.039 640.506C665.606 639.756 670.292 638.985 675.067 638.201C690.313 635.721 704.647 633.39 716.935 631.392L716.651 631.613C722.247 618.99 726.933 608.417 730.249 600.933C731.897 597.276 733.205 594.379 734.128 592.331C734.569 591.386 734.916 590.636 735.179 590.074C735.421 589.566 735.556 589.307 735.575 589.315Z" fill="#FFC91E"/>
<path d="M666.078 636.403L664.934 639.415L666.766 642.064L663.548 641.907L661.595 644.468L660.75 641.359L657.711 640.293L660.407 638.529L660.481 635.308L662.992 637.326L666.078 636.403Z" fill="#FFC91E"/>
<path d="M637.341 587.582L636.773 589.08L637.683 590.397L636.083 590.319L635.112 591.593L634.691 590.048L633.179 589.516L634.519 588.64L634.557 587.038L635.807 588.042L637.341 587.582Z" fill="#FFC91E"/>
<path d="M718.507 630.032L717.937 631.531L718.849 632.849L717.247 632.771L716.276 634.045L715.856 632.498L714.344 631.968L715.685 631.09L715.722 629.488L716.971 630.492L718.507 630.032Z" fill="#FFC91E"/>
<path d="M671.67 603.081L671.101 604.579L672.012 605.897L670.412 605.818L669.439 607.093L669.019 605.547L667.507 605.016L668.848 604.138L668.886 602.536L670.133 603.54L671.67 603.081Z" fill="#FFC91E"/>
<path d="M737.52 587.817L736.952 589.315L737.864 590.634L736.262 590.556L735.291 591.83L734.871 590.283L733.359 589.753L734.7 588.875L734.737 587.273L735.986 588.277L737.52 587.817Z" fill="#FFC91E"/>
<path d="M213.772 713.566H304.233C304.233 713.566 296.234 699.009 272.948 701.127C250.708 703.151 249.578 693.967 238.27 692.835C226.964 691.705 217.541 700.374 213.772 713.566Z" fill="#D0CFCF"/>
<path d="M231.733 357.402H322.194C322.194 357.402 314.195 342.846 290.91 344.964C268.671 346.988 267.541 337.803 256.233 336.672C244.925 335.54 235.502 344.209 231.733 357.402Z" fill="#D0CFCF"/>
<path d="M719 431.114H793.325C793.325 431.114 786.753 419.153 767.621 420.895C749.349 422.557 748.421 415.011 739.13 414.081C729.838 413.152 722.097 420.274 719 431.114Z" fill="#D0CFCF"/>
<path d="M542.761 567.012C546.45 539.16 526.87 516.183 502.402 502.375C477.933 488.566 449.549 483.945 422.525 476.266C397.037 469.024 371.687 458.459 352.809 439.866C333.93 421.273 322.605 393.322 329.393 367.71C331.096 361.278 334.141 354.819 339.664 351.109C345.187 347.399 353.617 347.494 357.737 352.718C366.51 363.844 349.415 383.772 360.12 393.053C362.577 395.183 365.957 395.968 368.501 397.995C375.269 403.393 373.078 413.887 374.034 422.493C375.924 439.512 391.882 451.329 407.555 458.224C428.547 467.46 451.289 471.801 473.56 477.275C495.83 482.75 518.285 489.646 536.839 503.126C555.393 516.606 571.489 537.709 571.361 560.641C571.325 567.05 570.509 574.93 566.488 579.919C562.467 584.907 557.343 585.944 551.544 583.216C545.743 580.485 541.686 576.266 542.761 567.012Z" fill="#FFC91E"/>
<g opacity="0.8">
<path d="M542.761 567.012C546.45 539.16 526.87 516.183 502.402 502.375C477.933 488.566 449.549 483.945 422.525 476.266C397.037 469.024 371.687 458.459 352.809 439.866C333.93 421.273 322.605 393.322 329.393 367.71C331.096 361.278 334.141 354.819 339.664 351.109C345.187 347.399 353.617 347.494 357.737 352.718C366.51 363.844 349.415 383.772 360.12 393.053C362.577 395.183 365.957 395.968 368.501 397.995C375.269 403.393 373.078 413.887 374.034 422.493C375.924 439.512 391.882 451.329 407.555 458.224C428.547 467.46 451.289 471.801 473.56 477.275C495.83 482.75 518.285 489.646 536.839 503.126C555.393 516.606 571.489 537.709 571.361 560.641C571.325 567.05 570.509 574.93 566.488 579.919C562.467 584.907 557.343 585.944 551.544 583.216C545.743 580.485 541.686 576.266 542.761 567.012Z" fill="white" fill-opacity="0.6"/>
</g>
<path d="M424.388 345.616C423.506 335.299 431.191 326.317 439.931 321.501C448.671 316.685 458.682 314.729 467.693 310.458C490.066 299.851 504.292 274.89 505.343 249.287C506.393 223.683 495.296 198.095 477.932 179.289C470.876 171.647 462.196 163.642 462.093 153.217C461.984 142.339 472.535 133.766 483.074 133.905C493.613 134.043 503.324 141.096 509.633 149.971C515.942 158.846 519.433 169.422 522.83 179.805C520.409 175.465 525.381 170.087 530.171 170.55C534.961 171.013 538.742 175.008 541.698 178.988C554.394 196.081 560.679 218.041 558.926 239.197C557.174 260.353 547.406 280.486 532.144 294.398C515.097 309.936 492.537 317.226 470.672 324.126C455.457 328.927 440.242 333.729 425.025 338.529" fill="#FFC91E"/>
<g opacity="0.8">
<path d="M424.388 345.616C423.506 335.299 431.191 326.317 439.931 321.501C448.671 316.685 458.682 314.729 467.693 310.458C490.066 299.851 504.292 274.89 505.343 249.287C506.393 223.683 495.296 198.095 477.932 179.289C470.876 171.647 462.196 163.642 462.093 153.217C461.984 142.339 472.535 133.766 483.074 133.905C493.613 134.043 503.324 141.096 509.633 149.971C515.942 158.846 519.433 169.422 522.83 179.805C520.409 175.465 525.381 170.087 530.171 170.55C534.961 171.013 538.742 175.008 541.698 178.988C554.394 196.081 560.679 218.041 558.926 239.197C557.174 260.353 547.406 280.486 532.144 294.398C515.097 309.936 492.537 317.226 470.672 324.126C455.457 328.927 440.242 333.729 425.025 338.529" fill="white" fill-opacity="0.6"/>
</g>
<path d="M411.69 128.84C407.156 130.747 404.668 136.491 406.377 141.105C408.087 145.719 413.717 148.453 418.4 146.944C423.083 145.435 426.059 139.928 424.756 135.185C423.451 130.44 418.079 127.229 413.282 128.327" fill="#FFC91E"/>
<g opacity="0.8">
<path d="M411.69 128.84C407.156 130.747 404.668 136.491 406.377 141.105C408.087 145.719 413.717 148.453 418.4 146.944C423.083 145.435 426.059 139.928 424.756 135.185C423.451 130.44 418.079 127.229 413.282 128.327" fill="white" fill-opacity="0.6"/>
</g>
<path d="M467.973 794.669C462.378 783.067 467.256 768.609 476.169 759.313C485.082 750.016 497.257 744.711 509.044 739.518C535.057 728.06 562.6 714.404 575.828 689.244C580.29 680.759 582.831 671.421 585.341 662.17C590.198 644.261 594.748 623.924 584.985 608.145C582.177 603.608 577.952 599.569 572.697 598.638C566.714 597.575 560.561 600.871 556.873 605.7C553.186 610.53 551.605 616.647 550.843 622.676C549.391 634.145 550.594 645.811 549.388 657.307C548.182 668.803 543.976 680.825 534.492 687.437C522.977 695.465 506.542 693.662 495.357 702.147C486.324 708.997 482.889 720.875 475.825 729.741C469.888 737.193 461.581 742.285 453.971 748.015C446.361 753.745 439.001 760.738 436.415 769.907C433.729 779.432 437.087 790.386 444.65 796.767C452.214 803.149 463.575 804.616 472.513 800.365" fill="#FFC91E"/>
<g opacity="0.8">
<path d="M467.973 794.669C462.378 783.067 467.256 768.609 476.169 759.313C485.082 750.016 497.257 744.711 509.044 739.518C535.057 728.06 562.6 714.404 575.828 689.244C580.29 680.759 582.831 671.421 585.341 662.17C590.198 644.261 594.748 623.924 584.985 608.145C582.177 603.608 577.952 599.569 572.697 598.638C566.714 597.575 560.561 600.871 556.873 605.7C553.186 610.53 551.605 616.647 550.843 622.676C549.391 634.145 550.594 645.811 549.388 657.307C548.182 668.803 543.976 680.825 534.492 687.437C522.977 695.465 506.542 693.662 495.357 702.147C486.324 708.997 482.889 720.875 475.825 729.741C469.888 737.193 461.581 742.285 453.971 748.015C446.361 753.745 439.001 760.738 436.415 769.907C433.729 779.432 437.087 790.386 444.65 796.767C452.214 803.149 463.575 804.616 472.513 800.365" fill="white" fill-opacity="0.6"/>
</g>
<path d="M301.555 184.411C292.393 177.614 286.803 166.254 287.005 154.85C287.209 143.445 293.202 132.291 302.6 125.826C307.914 122.171 314.214 119.935 318.939 115.545C323.14 111.641 325.871 106.226 330.572 102.942C336.412 98.8642 344.885 99.0439 350.547 103.366C356.208 107.689 358.615 115.816 356.219 122.524C354.052 128.589 348.608 133.02 346.333 139.044C343.884 145.529 345.462 152.793 344.551 159.666C343.433 168.11 338.304 175.935 331.005 180.327C323.706 184.72 314.391 185.589 306.406 182.622" fill="#FFC91E"/>
<g opacity="0.8">
<path d="M301.555 184.411C292.393 177.614 286.803 166.254 287.005 154.85C287.209 143.445 293.202 132.291 302.6 125.826C307.914 122.171 314.214 119.935 318.939 115.545C323.14 111.641 325.871 106.226 330.572 102.942C336.412 98.8642 344.885 99.0439 350.547 103.366C356.208 107.689 358.615 115.816 356.219 122.524C354.052 128.589 348.608 133.02 346.333 139.044C343.884 145.529 345.462 152.793 344.551 159.666C343.433 168.11 338.304 175.935 331.005 180.327C323.706 184.72 314.391 185.589 306.406 182.622" fill="white" fill-opacity="0.6"/>
</g>
<g filter="url(#filter0_d_182_999)">
<path d="M307.502 224.989H304.973C299.806 224.989 295.619 220.8 295.619 215.635V171.857H316.856V215.635C316.856 220.8 312.669 224.989 307.502 224.989Z" fill="#FFC91E"/>
<path d="M295.619 171.857L306.237 152.38L316.856 171.857H295.619Z" fill="#FFBE9D"/>
<path d="M302.031 160.094C302.031 160.094 305.256 164.943 310.443 160.094L306.237 152.38L302.031 160.094Z" fill="#FFC91E"/>
</g>
<path d="M317.15 213.503C317.15 213.74 312.317 213.932 306.355 213.932C300.392 213.932 295.56 213.74 295.56 213.503C295.56 213.266 300.393 213.075 306.355 213.075C312.317 213.075 317.15 213.266 317.15 213.503Z" fill="#121011"/>
<path d="M316.932 210.248C316.932 210.484 312.196 210.676 306.355 210.676C300.511 210.676 295.776 210.484 295.776 210.248C295.776 210.011 300.511 209.819 306.355 209.819C312.197 209.819 316.932 210.011 316.932 210.248Z" fill="#121011"/>
<path d="M301.852 172.168C302.088 172.168 302.28 180.645 302.28 191.098C302.28 201.556 302.088 210.03 301.852 210.03C301.615 210.03 301.423 201.556 301.423 191.098C301.423 180.643 301.615 172.168 301.852 172.168Z" fill="#FAFAFA"/>
<path d="M310.443 172.168C310.68 172.168 310.872 180.645 310.872 191.098C310.872 201.556 310.68 210.03 310.443 210.03C310.207 210.03 310.015 201.556 310.015 191.098C310.015 180.643 310.207 172.168 310.443 172.168Z" fill="#FAFAFA"/>
<path d="M480.126 770.265L576.607 774.391L578.938 780.012L515.704 882.654L401.549 879.326L480.126 770.265Z" fill="#121011"/>
<path d="M397.218 869.319L512.06 875.878L572.042 782.793L529.924 786.216L423.318 823.757L397.218 869.319Z" fill="white"/>
<path d="M381.089 862.415L486.547 864.08C482.167 850.589 492.499 831.586 506.675 825.194C516.072 820.957 533.755 815.469 542.878 810.79C560.215 801.896 575.881 785.055 574.511 770.603L531.199 769.224L475.918 767.089C471.296 780.802 461.408 789.786 446.377 795.189C432.924 800.026 417.614 800.014 404.493 805.509C383.374 814.355 373.225 843.012 381.089 862.415Z" fill="white"/>
<path d="M381.089 862.415C381.089 862.415 380.989 862.191 380.825 861.735C380.654 861.254 380.415 860.58 380.103 859.701C379.734 858.816 379.52 857.651 379.204 856.286C378.826 854.93 378.699 853.307 378.476 851.486C378.209 847.836 378.247 843.274 379.313 838.078C380.386 832.903 382.425 827.071 386.076 821.341C387.023 819.934 387.934 818.447 389.112 817.1C389.684 816.416 390.22 815.687 390.839 815.015C391.481 814.365 392.129 813.707 392.786 813.041C393.418 812.348 394.146 811.744 394.894 811.147C395.641 810.551 396.363 809.905 397.153 809.331C398.806 808.293 400.408 807.08 402.287 806.269C409.594 802.585 418.324 801.032 427.415 799.385C431.974 798.557 436.667 797.688 441.379 796.392C446.071 795.062 450.797 793.283 455.281 790.797C457.534 789.579 459.711 788.156 461.77 786.541C463.843 784.944 465.787 783.13 467.527 781.103C471.073 777.095 473.741 772.223 475.54 766.959L475.637 766.679L475.932 766.691C490.613 767.251 506.024 767.839 521.994 768.447C537.964 769.076 554.504 769.51 571.435 770.076C572.476 770.109 573.512 770.142 574.523 770.175L574.905 770.187L574.938 770.564C575.228 773.904 574.62 777.227 573.543 780.311C573.053 781.88 572.299 783.332 571.612 784.804C570.798 786.209 570.037 787.643 569.09 788.951C565.494 794.32 560.888 798.815 556.025 802.763C551.121 806.682 545.8 809.938 540.259 812.504C534.695 815.004 529.063 817.043 523.546 819.084C518.031 821.125 512.576 823.059 507.397 825.312C504.857 826.496 502.417 827.845 500.304 829.618C499.182 830.418 498.248 831.431 497.223 832.328C496.321 833.347 495.317 834.27 494.515 835.357C491.109 839.535 488.55 844.27 487.14 849.217C485.647 854.13 485.481 859.329 486.879 863.972L487.021 864.441L486.54 864.432C454.598 863.865 428.245 863.397 409.845 863.072C400.676 862.885 393.495 862.74 388.577 862.64C386.149 862.58 384.284 862.533 382.997 862.5C381.737 862.462 381.089 862.415 381.089 862.415C381.089 862.415 381.739 862.39 383 862.391C384.288 862.4 386.152 862.412 388.58 862.428C393.5 862.483 400.681 862.564 409.852 862.668C428.252 862.922 454.607 863.286 486.553 863.729L486.214 864.188C484.748 859.378 484.923 854.031 486.435 849.013C487.866 843.957 490.461 839.136 493.922 834.873C494.738 833.765 495.758 832.82 496.679 831.781C497.721 830.864 498.674 829.831 499.82 829.01C501.973 827.197 504.489 825.797 507.078 824.59C512.3 822.309 517.752 820.37 523.264 818.322C528.774 816.276 534.401 814.232 539.913 811.749C545.382 809.21 550.651 805.982 555.496 802.105C560.302 798.198 564.853 793.75 568.382 788.476C569.313 787.19 570.055 785.786 570.853 784.412C571.523 782.974 572.26 781.555 572.735 780.033C573.779 777.037 574.361 773.836 574.084 770.648L574.497 771.037C573.486 771.004 572.448 770.971 571.408 770.939C554.475 770.372 537.935 769.931 521.963 769.292C505.993 768.666 490.582 768.063 475.901 767.488L476.292 767.218C474.456 772.566 471.726 777.533 468.106 781.611C466.328 783.672 464.344 785.518 462.233 787.137C460.135 788.775 457.923 790.214 455.635 791.445C451.084 793.956 446.309 795.739 441.566 797.071C436.81 798.365 432.095 799.226 427.533 800.042C418.436 801.659 409.755 803.187 402.546 806.791C400.695 807.581 399.114 808.771 397.478 809.786C396.697 810.347 395.983 810.983 395.243 811.569C394.502 812.153 393.781 812.746 393.156 813.428C392.504 814.083 391.86 814.73 391.222 815.369C390.607 816.029 390.075 816.748 389.506 817.422C388.335 818.745 387.428 820.214 386.482 821.602C382.838 827.256 380.78 833.029 379.677 838.158C378.584 843.309 378.506 847.836 378.731 851.469C378.933 853.28 379.036 854.897 379.392 856.25C379.686 857.613 379.878 858.778 380.225 859.666C380.51 860.553 380.728 861.232 380.885 861.716C381.03 862.174 381.089 862.415 381.089 862.415Z" fill="#121011"/>
<path d="M505.542 768.798C505.465 768.775 505.68 768.12 505.78 766.912C505.872 765.715 505.792 763.916 504.952 761.932C504.14 759.971 502.523 757.797 499.967 756.591C497.449 755.378 494.121 755.124 491.08 756.271C488.016 757.396 485.809 759.892 484.66 762.451C483.465 765.029 483.302 767.686 483.646 769.796C483.992 771.927 484.799 773.527 485.448 774.543C486.102 775.57 486.589 776.053 486.535 776.105C486.508 776.138 485.936 775.732 485.175 774.735C484.42 773.747 483.491 772.126 483.05 769.905C482.611 767.706 482.713 764.88 483.94 762.129C485.115 759.399 487.463 756.69 490.779 755.47C494.054 754.236 497.617 754.533 500.316 755.881C503.065 757.23 504.736 759.613 505.517 761.708C506.329 763.833 506.312 765.723 506.113 766.952C506.01 767.571 505.885 768.041 505.761 768.347C505.643 768.652 505.569 768.808 505.542 768.798Z" fill="#121011"/>
<path d="M522.07 768.798C521.994 768.775 522.208 768.12 522.308 766.912C522.4 765.715 522.32 763.916 521.481 761.932C520.668 759.971 519.051 757.797 516.495 756.591C513.978 755.378 510.651 755.124 507.608 756.271C504.544 757.396 502.338 759.892 501.189 762.451C499.991 765.029 499.83 767.686 500.174 769.796C500.52 771.927 501.327 773.527 501.977 774.543C502.63 775.57 503.117 776.053 503.064 776.105C503.036 776.138 502.464 775.732 501.704 774.735C500.948 773.747 500.019 772.126 499.578 769.905C499.139 767.706 499.241 764.88 500.468 762.129C501.643 759.399 503.991 756.69 507.308 755.47C510.582 754.236 514.145 754.533 516.844 755.881C519.594 757.23 521.265 759.613 522.046 761.708C522.858 763.833 522.84 765.723 522.642 766.952C522.538 767.571 522.414 768.041 522.289 768.347C522.172 768.652 522.097 768.808 522.07 768.798Z" fill="#121011"/>
<path d="M534.624 769.656C534.546 769.637 534.724 768.972 534.755 767.761C534.779 766.56 534.598 764.77 533.646 762.836C532.723 760.925 530.986 758.844 528.367 757.785C525.783 756.717 522.448 756.652 519.476 757.97C516.481 759.266 514.418 761.882 513.416 764.502C512.367 767.144 512.357 769.805 512.818 771.892C513.285 774.001 514.18 775.552 514.887 776.53C515.597 777.517 516.112 777.973 516.06 778.029C516.034 778.061 515.44 777.69 514.624 776.736C513.815 775.793 512.794 774.227 512.229 772.034C511.666 769.864 511.607 767.037 512.678 764.22C513.696 761.428 515.887 758.589 519.129 757.185C522.327 755.768 525.903 755.862 528.673 757.056C531.493 758.248 533.298 760.533 534.195 762.58C535.127 764.656 535.216 766.544 535.089 767.782C535.021 768.404 534.923 768.881 534.816 769.193C534.717 769.506 534.651 769.663 534.624 769.656Z" fill="#121011"/>
<path d="M548.081 770.422C548.002 770.408 548.144 769.734 548.111 768.521C548.071 767.32 547.796 765.542 546.742 763.66C545.719 761.801 543.875 759.815 541.202 758.896C538.567 757.967 535.232 758.077 532.334 759.551C529.412 761.003 527.491 763.724 526.628 766.396C525.721 769.09 525.851 771.747 526.423 773.807C527 775.888 527.976 777.389 528.733 778.328C529.495 779.274 530.032 779.705 529.984 779.762C529.96 779.796 529.346 779.456 528.482 778.547C527.624 777.648 526.523 776.138 525.842 773.978C525.165 771.841 524.957 769.022 525.877 766.152C526.746 763.31 528.783 760.358 531.945 758.786C535.064 757.201 538.64 757.106 541.468 758.151C544.349 759.192 546.27 761.378 547.276 763.375C548.316 765.399 548.506 767.28 548.442 768.523C548.408 769.148 548.335 769.631 548.246 769.947C548.168 770.266 548.111 770.429 548.081 770.422Z" fill="#121011"/>
<path d="M561.567 770.106C561.487 770.094 561.612 769.416 561.544 768.205C561.472 767.006 561.145 765.236 560.041 763.386C558.966 761.554 557.067 759.622 554.37 758.779C551.708 757.923 548.379 758.129 545.524 759.682C542.643 761.217 540.8 763.99 540.013 766.684C539.182 769.402 539.386 772.057 540.017 774.099C540.651 776.162 541.67 777.636 542.453 778.554C543.241 779.48 543.791 779.893 543.744 779.952C543.722 779.988 543.098 779.663 542.208 778.78C541.325 777.906 540.181 776.427 539.44 774.287C538.702 772.169 538.415 769.358 539.255 766.463C540.043 763.598 541.999 760.59 545.114 758.929C548.188 757.258 551.759 757.063 554.617 758.027C557.525 758.986 559.509 761.118 560.57 763.085C561.667 765.079 561.909 766.954 561.881 768.196C561.864 768.822 561.805 769.306 561.724 769.625C561.648 769.947 561.596 770.111 561.567 770.106Z" fill="#121011"/>
<path d="M572.93 771.621C572.851 771.606 573.001 770.933 572.982 769.722C572.956 768.521 572.702 766.74 571.67 764.846C570.67 762.974 568.849 760.966 566.187 760.016C563.563 759.055 560.228 759.128 557.312 760.567C554.373 761.984 552.42 764.683 551.527 767.344C550.587 770.026 550.687 772.687 551.235 774.754C551.786 776.841 552.745 778.353 553.492 779.302C554.243 780.259 554.776 780.693 554.726 780.75C554.701 780.785 554.091 780.437 553.238 779.518C552.391 778.609 551.308 777.085 550.651 774.918C550 772.772 549.823 769.952 550.777 767.092C551.679 764.26 553.753 761.333 556.934 759.796C560.072 758.248 563.647 758.196 566.466 759.275C569.332 760.349 571.23 762.558 572.211 764.566C573.229 766.601 573.395 768.485 573.317 769.726C573.276 770.351 573.196 770.831 573.103 771.148C573.016 771.466 572.958 771.626 572.93 771.621Z" fill="#121011"/>
<path d="M622.629 417.639C618.09 417.511 613.274 417.673 608.342 418.285C578.567 421.974 556.379 447.55 556.438 477.554C556.455 486.29 557.388 496.067 560.133 505.803C568.439 535.274 571.003 561.26 570.044 573.909L597.86 588.861C597.86 588.861 610.739 570.361 623.175 562.379C635.613 554.399 677.025 533.067 693.418 511.136C703.987 496.995 706.017 467.979 680.825 442.601C665.43 427.096 644.468 418.254 622.629 417.639Z" fill="#FFC91E"/>
<path d="M556.877 606.094L582.006 619.676L565.648 640.449L548.897 632.835L556.877 606.094Z" fill="#121011"/>
<path d="M558.097 606.932C557.874 606.851 560.367 599.393 563.666 590.276C566.965 581.156 569.82 573.829 570.043 573.91C570.265 573.992 567.772 581.448 564.473 590.568C561.174 599.685 558.32 607.012 558.097 606.932Z" fill="#121011"/>
<path d="M580.421 618.653C580.217 618.532 584.153 611.487 589.215 602.92C594.276 594.349 598.542 587.499 598.748 587.62C598.952 587.741 595.016 594.785 589.954 603.355C584.893 611.925 580.625 618.774 580.421 618.653Z" fill="#121011"/>
<g opacity="0.4">
<path d="M631.008 418.428C629.88 418.491 616.054 434.675 609.937 445.629C589.36 482.48 588.435 518.346 582.724 560.166C581.909 566.14 578.938 579.02 578.995 578.721C582.04 581.107 592.273 585.858 592.273 585.858C592.273 585.858 601.922 574.211 605.757 568.353C621.114 544.895 637.784 526.61 650.929 501.846C664.073 477.08 676.724 455.121 664.559 429.859C664.559 429.859 643.489 417.728 631.008 418.428Z" fill="#121011"/>
</g>
<path d="M693.524 514.842C693.503 514.849 693.38 514.576 693.164 514.045C692.933 513.52 692.668 512.711 692.204 511.709C691.296 509.7 689.814 506.805 687.348 503.541C684.873 500.306 681.423 496.651 676.674 493.583C672.001 490.443 665.986 487.956 659.166 487.101L658.998 487.08L658.9 486.947C655.703 482.636 652.038 478.188 647.673 474.06C643.317 469.943 638.216 466.156 632.347 463.507C626.493 460.894 620.186 459.736 614.234 460.054C608.281 460.355 602.7 462.247 598.382 465.337L598.131 465.516L597.9 465.312C592.735 460.77 586.545 458.421 580.97 457.789C575.356 457.141 570.374 458.174 566.576 459.624C562.749 461.081 560.05 462.933 558.308 464.277C557.439 464.956 556.791 465.509 556.369 465.897C555.942 466.28 555.712 466.47 555.698 466.456C555.683 466.441 555.883 466.221 556.284 465.807C556.68 465.388 557.304 464.803 558.157 464.087C559.865 462.672 562.552 460.735 566.412 459.194C570.24 457.661 575.304 456.543 581.045 457.151C586.742 457.744 593.089 460.096 598.413 464.732L597.932 464.708C602.363 461.502 608.1 459.537 614.191 459.218C620.282 458.877 626.719 460.054 632.702 462.722C638.682 465.42 643.854 469.276 648.25 473.45C652.655 477.635 656.33 482.135 659.524 486.486L659.257 486.332C666.214 487.239 672.316 489.815 677.028 493.045C681.818 496.204 685.269 499.952 687.718 503.261C690.156 506.601 691.587 509.556 692.428 511.609C692.862 512.632 693.088 513.46 693.284 513.999C693.461 514.55 693.544 514.835 693.524 514.842Z" fill="#121011"/>
<path d="M641.817 551.564C641.649 551.623 641.68 549.05 639.418 545.519C638.276 543.805 636.569 541.858 634.077 540.392C631.644 538.884 628.385 537.871 624.872 538.212L624.523 538.244L624.469 537.899C623.913 534.325 622.432 530.524 619.906 527.154C617.393 523.802 613.875 520.811 609.586 519.143C606.064 517.74 602.316 517.249 598.796 517.489C595.27 517.742 591.979 518.742 589.187 520.204L588.923 520.342L588.719 520.125C585.938 517.146 582.349 515.475 579.059 514.892C575.757 514.225 572.745 514.56 570.399 515.164C565.645 516.46 563.62 518.756 563.524 518.576C563.511 518.561 563.635 518.433 563.893 518.201C564.159 517.98 564.522 517.609 565.071 517.225C566.153 516.44 567.874 515.424 570.276 514.718C572.664 514.033 575.755 513.626 579.177 514.26C582.583 514.809 586.343 516.494 589.291 519.601L588.822 519.522C591.698 517.985 595.093 516.93 598.738 516.655C602.373 516.39 606.253 516.89 609.906 518.345C614.359 520.078 617.994 523.187 620.571 526.662C623.163 530.156 624.661 534.092 625.197 537.788L624.794 537.477C628.511 537.156 631.896 538.274 634.39 539.877C636.944 541.441 638.658 543.491 639.778 545.286C640.891 547.109 641.383 548.73 641.62 549.836C641.741 550.389 641.76 550.828 641.799 551.116C641.832 551.41 641.837 551.56 641.817 551.564Z" fill="#121011"/>
<path d="M577.148 626.217C577.084 626.265 576.875 625.873 576.225 625.605C575.577 625.334 574.532 625.298 573.286 625.695C572.65 625.864 571.926 626.099 571.064 626.101C570.2 626.117 569.243 625.698 568.581 625.006C567.247 623.618 566.74 621.61 565.481 620.222C564.853 619.543 564.038 619.194 563.165 619.246C562.294 619.281 561.418 619.569 560.545 619.77C559.678 619.977 558.759 620.108 557.912 619.91C557.072 619.732 556.384 619.315 555.854 618.856C554.788 617.921 554.321 616.82 554.2 616.063C554.071 615.296 554.193 614.873 554.237 614.878C554.311 614.88 554.307 615.298 554.523 615.982C554.731 616.658 555.244 617.613 556.238 618.386C556.732 618.764 557.349 619.092 558.052 619.212C558.745 619.346 559.528 619.222 560.357 619.001C561.19 618.793 562.082 618.465 563.132 618.405C564.188 618.31 565.365 618.799 566.104 619.631C567.565 621.294 568.024 623.269 569.151 624.456C569.695 625.038 570.378 625.365 571.083 625.389C571.791 625.419 572.491 625.241 573.143 625.104C574.458 624.762 575.688 624.886 576.372 625.305C577.077 625.724 577.186 626.215 577.148 626.217Z" fill="white"/>
<path d="M580.029 622.184C579.918 622.393 574.428 619.682 567.77 616.131C561.11 612.578 555.802 609.53 555.914 609.319C556.027 609.11 561.513 611.819 568.175 615.372C574.833 618.926 580.141 621.975 580.029 622.184Z" fill="white"/>
<path d="M575.038 628.522C575.052 628.588 574.687 628.695 574.081 628.977C573.775 629.113 573.424 629.32 572.946 629.514C572.467 629.713 571.847 629.787 571.214 629.74C569.96 629.652 568.413 629.258 567.074 628.144C566.409 627.601 565.847 626.806 565.494 625.971C565.125 625.152 564.834 624.309 564.278 623.71C563.129 622.481 561.27 622.35 559.726 622.405C558.14 622.464 556.578 622.51 555.356 621.987C554.152 621.484 553.421 620.629 553.148 619.962C552.866 619.284 552.966 618.868 553.008 618.873C553.082 618.864 553.106 619.255 553.445 619.809C553.773 620.355 554.482 621.043 555.574 621.42C556.658 621.809 558.078 621.722 559.697 621.615C561.273 621.532 563.404 621.558 564.912 623.131C565.628 623.92 565.918 624.859 566.263 625.629C566.588 626.417 567.022 627.045 567.592 627.546C568.724 628.546 570.122 628.983 571.271 629.135C572.434 629.348 573.272 628.861 573.963 628.664C574.637 628.468 575.03 628.474 575.038 628.522Z" fill="white"/>
<path d="M385.319 467.136L428.772 460.692L407.996 431.26L396.855 431.917C389.358 432.359 382.748 436.992 379.776 443.89C378.197 447.554 377.758 451.608 378.515 455.525L385.319 467.136Z" fill="#FFC91E"/>
<path opacity="0.4" d="M385.319 467.136L428.772 460.692L407.996 431.26L396.855 431.917C389.358 432.359 382.748 436.992 379.776 443.89C378.197 447.554 377.758 451.608 378.515 455.525L385.319 467.136Z" fill="black"/>
<path d="M571.973 515.286C572.42 516.53 572.909 518.004 573.404 519.765C573.829 521.277 573.977 522.853 573.872 524.42C573.744 526.319 573.469 528.839 572.892 530.169C572.177 531.818 573.837 533.477 575.246 532.653C576.654 531.828 578.734 527.336 578.605 521.552C578.477 515.768 584.376 522.701 586.571 525.188C588.767 527.674 595.919 535.053 597.219 534.984C599.125 534.882 599.367 532.822 597.117 530.389C594.839 527.927 588.632 520.183 590.003 519.088C591.352 518.008 602.354 530.824 602.354 530.824C602.354 530.824 604.262 533.945 605.888 532.73C608.819 530.541 596.12 517.778 594.881 516.594C594.02 515.77 595.467 514.528 596.343 515.461C597.246 516.422 607.02 528.5 610.025 526.299C612.33 524.611 599.676 515.704 599.04 512.072C598.404 508.44 607.95 519.801 610.085 518.099C610.882 517.465 611.387 516.881 604.964 511.148C601.846 508.364 589.992 500.069 589.992 500.069L554.328 397.953L526.786 413.726L571.973 515.286Z" fill="#FFBE9D"/>
<path d="M359.664 322.167L319.809 274.603L319.806 274.605C319.289 272.97 318.669 271.376 317.857 269.864C315.864 266.154 312.569 262.92 308.454 262.02C305.926 261.467 303.034 261.733 301.05 260.071C300.164 259.328 299.573 258.27 298.643 257.581C297.715 256.891 296.167 256.758 295.572 257.752C295.149 258.459 295.418 259.364 295.738 260.123C297.217 263.634 299.635 266.736 302.657 269.053C298.919 270.188 293.583 271.906 293.583 271.906C293.583 271.906 285.158 262.765 280.843 262.794C276.528 262.824 284.33 270.956 284.33 270.956C284.33 270.956 277.42 264.571 275.277 266.37C273.134 268.17 278.626 272.91 278.626 272.91C276.88 271.977 274.971 271.016 273.02 271.339C271.069 271.664 269.39 273.968 270.44 275.642C270.843 276.285 271.532 276.679 272.196 277.049C275.731 279.018 279.267 280.99 282.804 282.962C284.579 283.952 286.443 284.966 288.475 285.028C293.856 285.194 297.948 281.863 303.329 282.006C303.329 282.006 333.383 345.27 336.422 348.532C339.462 351.795 405.485 356.238 405.485 356.238L443.698 323.314L359.664 322.167Z" fill="#FFBE9D"/>
<path d="M479.367 666.773L520.067 684.499L498.272 735.247C493.551 732.867 495.094 702.434 495.094 702.434L468.552 692.147L479.367 666.773Z" fill="#FFC91E"/>
<g opacity="0.6">
<path d="M499.633 685.797C500.325 684.929 501.719 684.725 502.614 685.38C503.509 686.033 503.729 687.452 503.053 688.33C502.377 689.209 500.71 689.505 499.894 688.755C499.079 688.005 498.911 686.325 499.777 685.634" fill="white"/>
</g>
<path opacity="0.6" d="M520.065 684.499L515.894 682.873L496.558 732.138C496.558 732.138 496.57 734.82 498.272 735.249L520.065 684.499Z" fill="white"/>
<path d="M494.482 703.146C494.735 703.244 495.377 702.054 496.699 701.176C497.997 700.263 499.34 700.098 499.34 699.826C499.39 699.577 497.75 699.31 496.169 700.4C494.579 701.476 494.232 703.101 494.482 703.146Z" fill="#121011"/>
<path d="M494.398 709.413C494.614 709.572 495.495 708.681 496.905 708.29C498.303 707.856 499.528 708.131 499.623 707.88C499.763 707.664 498.384 706.87 496.641 707.39C494.894 707.894 494.163 709.306 494.398 709.413Z" fill="#121011"/>
<path d="M499.469 715.173C499.62 714.97 498.529 714.093 496.898 714.146C495.267 714.188 494.23 715.126 494.391 715.319C494.534 715.548 495.585 715.107 496.924 715.084C498.265 715.031 499.34 715.409 499.469 715.173Z" fill="#121011"/>
<path d="M488.693 700.13C488.963 700.124 489.11 698.84 489.806 697.48C490.475 696.106 491.413 695.218 491.256 694.998C491.139 694.777 489.765 695.448 488.967 697.061C488.156 698.667 488.446 700.168 488.693 700.13Z" fill="#121011"/>
<path d="M483.19 696.336C483.292 696.382 483.865 695.468 484.268 693.789C484.467 692.952 484.607 691.926 484.593 690.778C484.584 690.205 484.539 689.603 484.444 688.987C484.394 688.688 484.361 688.345 484.177 687.962C484.037 687.576 483.446 687.138 482.906 687.283C482.405 687.374 482.039 687.761 481.873 688.124C481.7 688.494 481.645 688.829 481.595 689.133C481.489 689.757 481.45 690.367 481.458 690.946C481.483 692.106 481.702 693.132 481.991 693.949C482.575 695.594 483.328 696.394 483.413 696.331C483.542 696.253 483.012 695.347 482.628 693.763C482.436 692.973 482.302 692.01 482.324 690.948C482.338 690.417 482.393 689.861 482.5 689.296C482.59 688.698 482.782 688.238 483.081 688.204C483.193 688.193 483.233 688.202 483.342 688.382C483.437 688.56 483.485 688.84 483.535 689.133C483.636 689.709 483.696 690.269 483.725 690.806C483.784 691.879 483.72 692.855 483.611 693.668C483.397 695.295 483.055 696.282 483.19 696.336Z" fill="#121011"/>
<path d="M483.684 696.165C483.76 696.094 483.083 695.219 481.517 694.44C480.74 694.056 479.739 693.725 478.585 693.592C478.009 693.529 477.396 693.517 476.763 693.576C476.134 693.657 475.307 693.732 474.783 694.646C474.548 695.14 474.762 695.726 475.035 696.013C475.307 696.327 475.587 696.488 475.855 696.673C476.407 697.02 476.993 697.258 477.565 697.409C478.714 697.713 479.803 697.656 480.657 697.45C482.398 697.023 483.138 696.116 483.064 696.059C482.976 695.923 482.125 696.581 480.536 696.797C479.753 696.904 478.787 696.883 477.802 696.576C477.311 696.424 476.815 696.203 476.354 695.899C475.848 695.587 475.5 695.199 475.642 695.021C475.746 694.767 476.337 694.513 476.857 694.488C477.424 694.423 477.978 694.416 478.505 694.45C479.559 694.526 480.496 694.765 481.253 695.047C482.775 695.62 483.589 696.284 483.684 696.165Z" fill="#121011"/>
<path d="M448.022 736.489L464.854 771.756L470.126 803.489C470.506 805.775 472.742 807.263 474.999 806.729C476.262 806.43 477.297 805.549 477.783 804.346C480.878 796.684 492.12 768.443 490.743 765.931C489.15 763.021 475.455 727.55 475.455 727.55L448.022 736.489Z" fill="#FFC91E"/>
<path opacity="0.6" d="M474.999 806.731L489.663 763.527L490.342 765.038C490.93 766.344 491.04 767.813 490.641 769.188C489.573 772.865 486.402 782.953 477.892 804.301C477.398 805.54 476.307 806.458 474.999 806.731Z" fill="white"/>
<g opacity="0.6">
<path d="M477.18 755.316C476.565 756.335 476.879 757.816 477.873 758.473C478.866 759.13 480.375 758.822 481.009 757.814C481.642 756.807 481.318 755.015 480.257 754.474C479.198 753.933 477.444 754.391 477.071 755.521" fill="white"/>
</g>
<path d="M476.145 787.495C475.987 787.683 474.344 786.178 471.773 786.128C469.203 786 467.46 787.387 467.316 787.187C467.246 787.113 467.572 786.634 468.355 786.142C469.127 785.647 470.385 785.224 471.804 785.271C473.223 785.323 474.448 785.834 475.184 786.38C475.929 786.924 476.221 787.425 476.145 787.495Z" fill="#121011"/>
<path d="M475.753 793.41C475.652 793.639 473.986 792.995 471.906 793.295C469.819 793.55 468.381 794.607 468.224 794.412C468.039 794.275 469.414 792.749 471.792 792.445C474.166 792.115 475.894 793.23 475.753 793.41Z" fill="#121011"/>
<path d="M478.122 779.252C478.03 779.496 475.474 778.492 472.198 778.677C468.918 778.81 466.471 780.056 466.357 779.821C466.214 779.656 468.64 777.972 472.157 777.82C475.671 777.631 478.248 779.076 478.122 779.252Z" fill="#121011"/>
<path d="M473.9 768.105C473.9 768.36 471.562 768.423 468.958 769.482C466.338 770.505 464.6 772.07 464.424 771.884C464.248 771.754 465.829 769.793 468.64 768.685C471.441 767.553 473.938 767.889 473.9 768.105Z" fill="#121011"/>
<path d="M469.221 757.626C469.203 757.882 466.689 757.583 464.038 758.924C461.358 760.204 460.059 762.378 459.846 762.236C459.755 762.188 459.943 761.566 460.551 760.721C461.153 759.879 462.227 758.862 463.66 758.153C465.096 757.45 466.558 757.22 467.591 757.258C468.63 757.293 469.238 757.524 469.221 757.626Z" fill="#121011"/>
<path d="M463.205 756.906C463.161 756.926 462.865 756.484 462.551 755.578C462.241 754.68 461.922 753.296 462.036 751.566C462.124 750.731 462.141 749.698 462.926 748.782C463.314 748.323 464.092 748.082 464.728 748.366C465.353 748.637 465.749 749.162 466.015 749.722C466.995 752.001 466.036 755.063 463.637 756.532C461.208 757.961 458.237 757.543 456.349 756.043C455.899 755.637 455.467 755.086 455.474 754.358C455.473 753.629 456.088 753.061 456.639 752.919C457.769 752.601 458.711 752.91 459.535 753.085C461.208 753.52 462.435 754.217 463.212 754.761C463.995 755.309 464.346 755.708 464.313 755.746C464.23 755.895 462.625 754.4 459.395 753.676C458.599 753.533 457.66 753.322 456.867 753.593C456.48 753.723 456.226 754.015 456.228 754.374C456.221 754.723 456.497 755.136 456.867 755.447C458.441 756.662 461.158 757.037 463.192 755.798C465.225 754.581 466.064 751.887 465.293 750.047C465.101 749.606 464.785 749.218 464.434 749.062C464.088 748.91 463.705 748.996 463.437 749.278C462.869 749.869 462.741 750.828 462.64 751.621C462.314 754.911 463.38 756.869 463.205 756.906Z" fill="#121011"/>
<path d="M504.74 671.081L458.592 640.017L473.864 490.038L430.151 464.511L390.177 455.249C390.177 455.249 373.481 489.98 366.057 512.214C350.267 559.501 339.183 576.447 341.717 610.724C342.519 621.572 382.579 648.709 407.878 663.785C408.226 667.247 408.668 670.271 409.221 672.766C417.866 711.848 444.255 763.823 444.255 763.823L484.36 745.178L471.419 700.861L484.897 708.722L504.74 671.081ZM405.542 574.373L410.927 550.333C409.788 565.618 408.748 581.565 408.003 596.856C405.411 589.789 404.528 581.935 405.542 574.373Z" fill="#121011"/>
<path d="M444.253 763.821C444.239 763.826 444.134 763.612 443.942 763.189C443.738 762.725 443.463 762.098 443.111 761.296C442.385 759.584 441.343 757.127 440.011 753.982C437.346 747.618 433.532 738.392 428.943 726.942C424.379 715.482 418.943 701.832 413.469 686.458C412.105 682.614 410.768 678.65 409.511 674.558C408.955 672.484 408.257 670.443 407.892 668.25C407.787 667.71 407.664 667.165 407.576 666.623L407.384 664.986C407.262 663.892 407.141 662.793 407.016 661.689C406.546 657.273 406.157 652.768 405.869 648.188C405.724 645.899 405.599 643.592 405.509 641.266C405.426 638.951 405.321 636.583 405.456 634.23C406.133 615.384 407.718 597.522 409.021 581.261C410.379 565.018 411.602 550.385 412.63 538.082C413.626 525.789 414.322 515.834 414.716 508.95C414.93 505.507 415.05 502.834 415.131 501.02C415.179 500.145 415.215 499.461 415.243 498.957C415.273 498.492 415.297 498.255 415.311 498.255C415.324 498.255 415.331 498.493 415.331 498.96C415.324 499.465 415.316 500.149 415.305 501.025C415.279 502.841 415.216 505.52 415.051 508.965C414.759 515.858 414.156 525.825 413.237 538.127C412.261 550.435 411.099 565.073 409.81 581.323C408.552 597.579 406.99 615.46 406.316 634.245C406.183 636.594 406.287 638.906 406.368 641.231C406.458 643.549 406.579 645.85 406.722 648.133C407.008 652.7 407.391 657.193 407.854 661.599C407.975 662.7 408.096 663.796 408.217 664.888L408.405 666.519C408.494 667.053 408.613 667.577 408.713 668.104C409.059 670.215 409.753 672.272 410.299 674.321C411.54 678.392 412.865 682.351 414.217 686.194C419.641 701.561 425.018 715.231 429.508 726.716C434.061 738.143 437.75 747.403 440.32 753.852C441.588 757.023 442.58 759.499 443.271 761.227C443.591 762.043 443.84 762.68 444.023 763.152C444.189 763.589 444.267 763.816 444.253 763.821Z" fill="#455A64"/>
<path d="M413.408 493.187C413.37 493.232 413.004 492.935 412.356 492.335C411.754 491.702 411.025 490.638 410.405 489.199C409.162 486.311 408.532 482.001 408.438 477.3C408.352 472.586 408.701 468.34 409.01 465.283C409.328 462.226 409.589 460.344 409.703 460.353C409.824 460.362 409.777 462.266 409.615 465.33C409.461 468.393 409.211 472.622 409.295 477.282C409.389 481.931 409.916 486.147 410.97 488.977C411.497 490.389 412.112 491.447 412.611 492.121C413.154 492.757 413.444 493.142 413.408 493.187Z" fill="#455A64"/>
<path d="M396.149 457.492C396.235 457.473 396.652 459.064 396.493 461.687C396.349 464.286 395.463 467.946 393.185 471.291C390.904 474.637 387.823 476.8 385.456 477.885C383.071 478.993 381.44 479.188 381.426 479.1C381.385 478.958 382.943 478.554 385.183 477.343C387.412 476.152 390.298 474.004 392.477 470.807C394.654 467.611 395.598 464.141 395.89 461.63C396.195 459.104 396.002 457.505 396.149 457.492Z" fill="#455A64"/>
<path d="M467.859 544.688C467.875 544.69 467.871 544.844 467.85 545.146C467.821 545.495 467.785 545.934 467.738 546.48C467.614 547.714 467.443 549.426 467.225 551.6C466.734 556.11 466.034 562.521 465.175 570.418C463.371 586.354 460.89 608.261 458.151 632.46C457.092 644.575 458.149 656.236 460.423 666.509C461.547 671.656 463.036 676.438 464.602 680.861C466.154 685.292 467.6 689.422 468.924 693.198C471.524 700.702 473.637 706.795 475.124 711.081C475.822 713.151 476.371 714.782 476.769 715.957C476.934 716.479 477.069 716.899 477.176 717.232C477.265 717.521 477.301 717.671 477.287 717.676C477.273 717.682 477.208 717.54 477.093 717.262C476.966 716.935 476.805 716.524 476.606 716.014C476.172 714.851 475.573 713.239 474.809 711.191C473.262 706.928 471.061 700.865 468.353 693.398C467 689.631 465.521 685.513 463.933 681.096C462.333 676.673 460.805 671.855 459.654 666.68C457.322 656.345 456.23 644.594 457.297 632.386C459.997 608.12 462.678 586.231 464.574 570.354C465.549 562.471 466.338 556.07 466.895 551.567C467.182 549.4 467.406 547.693 467.569 546.463C467.65 545.92 467.714 545.485 467.766 545.137C467.812 544.838 467.845 544.686 467.859 544.688Z" fill="#455A64"/>
<path d="M390.177 454.96L397.255 436.873L413.408 460.96L391.872 455.575" fill="#FFBE9D"/>
<path d="M559.213 400.585L540.041 357.608C537.75 350.698 533.45 349.625 529.849 345.616L481.823 318.529C446.822 304.194 427.766 352.272 427.766 352.272L395.953 424.834C358.544 437.236 385.032 465.967 385.032 465.967C385.032 465.967 374.856 448.28 384.863 441.898C395.342 435.216 406.959 452.821 418.12 469.543C431.298 489.283 474.118 502.107 474.118 502.107C479.127 496.816 477.726 478.345 481.647 468.431C482.891 465.288 512.543 396.605 512.543 396.605L524.038 424.454C524.038 424.454 538.773 407.179 545.913 404.433C553.055 401.684 559.213 400.585 559.213 400.585Z" fill="#FFC91E"/>
<path d="M474.118 431.127C474.145 431.172 473.643 431.554 472.665 432.142C471.688 432.731 470.211 433.488 468.294 434.212C464.496 435.676 458.747 436.811 452.513 435.848C446.276 434.886 441.137 432.069 437.956 429.529C436.349 428.261 435.169 427.094 434.415 426.237C433.66 425.382 433.296 424.865 433.335 424.831C433.455 424.718 435.068 426.671 438.322 429.043C441.538 431.414 446.582 434.063 452.644 435C458.704 435.935 464.311 434.931 468.092 433.64C471.909 432.359 474.038 430.984 474.118 431.127Z" fill="#121011"/>
<path d="M394.53 362.977L424.168 365.773L471.581 315.659L443.696 314.702L394.039 319.602C394.039 319.602 398.437 340.3 394.53 362.977Z" fill="#FFC91E"/>
<path d="M435.696 336.571C435.722 336.585 435.596 336.901 435.333 337.491C435.022 338.159 434.628 339.006 434.144 340.048C433.057 342.369 431.566 345.552 429.746 349.438C426.06 357.38 421.17 368.442 415.87 380.71C410.571 392.982 405.748 404.084 402.103 412.052C400.284 416.039 398.782 419.249 397.702 421.449C397.191 422.479 396.774 423.315 396.446 423.975C396.15 424.549 395.983 424.844 395.955 424.831C395.928 424.818 396.043 424.499 396.289 423.901C396.579 423.222 396.947 422.363 397.398 421.307C398.425 418.959 399.829 415.738 401.547 411.803C405.051 403.664 409.815 392.596 415.081 380.366C420.382 368.095 425.366 357.06 429.195 349.177C431.104 345.232 432.692 342.061 433.843 339.896C434.386 338.883 434.828 338.059 435.177 337.409C435.492 336.848 435.668 336.559 435.696 336.571Z" fill="#121011"/>
<path d="M526.151 351.147C526.234 351.292 524.396 352.251 521.888 354.385C520.625 355.439 519.257 356.848 517.883 358.527C516.549 360.238 515.232 362.235 514.124 364.482C513.048 366.744 512.295 369.016 511.778 371.123C511.311 373.241 511.052 375.189 511.007 376.832C510.886 380.122 511.272 382.158 511.106 382.184C511.047 382.194 510.923 381.694 510.745 380.773C510.646 380.314 510.551 379.749 510.513 379.082C510.466 378.418 510.364 377.66 510.401 376.82C510.368 375.138 510.568 373.134 511.005 370.95C511.491 368.778 512.243 366.431 513.35 364.107C514.489 361.798 515.865 359.754 517.268 358.028C518.711 356.331 520.16 354.933 521.501 353.917C522.139 353.367 522.796 352.977 523.347 352.604C523.893 352.222 524.397 351.945 524.819 351.738C525.654 351.306 526.124 351.093 526.151 351.147Z" fill="#121011"/>
<path d="M534.434 282.317L506.628 334.29C502.089 342.776 491.761 346.307 482.977 342.376C473.306 338.049 469.304 326.442 474.258 317.076C476.879 312.118 479.055 308.07 479.055 308.07C479.055 308.07 466.966 300.235 472.62 287.173C477.664 275.519 496.181 242.627 500.114 235.672L523.549 246.159C536.709 252.997 541.633 269.35 534.434 282.317Z" fill="#FFBE9D"/>
<path d="M479.117 307.874C479.117 307.874 487.028 312.215 498.206 310.639C498.206 310.639 490.019 318.197 477.581 311.227L479.117 307.874Z" fill="#EB996E"/>
<path d="M488.047 266.319C487.574 267.284 488.001 268.479 488.998 268.993C489.993 269.504 491.185 269.139 491.659 268.175C492.132 267.211 491.705 266.015 490.71 265.504C489.713 264.991 488.519 265.355 488.047 266.319Z" fill="#121011"/>
<path d="M488.153 264.666C488.275 265.01 490.145 264.6 492.139 265.499C494.144 266.368 495.149 268.051 495.474 267.902C495.63 267.842 495.59 267.301 495.16 266.551C494.74 265.808 493.869 264.878 492.623 264.327C491.377 263.778 490.126 263.767 489.316 263.966C488.491 264.161 488.087 264.507 488.153 264.666Z" fill="#121011"/>
<path d="M506.723 275.507C506.25 276.471 506.677 277.667 507.676 278.179C508.671 278.69 509.863 278.326 510.337 277.361C510.81 276.397 510.383 275.2 509.388 274.688C508.389 274.177 507.197 274.543 506.723 275.507Z" fill="#121011"/>
<path d="M507.608 273.819C507.731 274.165 509.602 273.753 511.595 274.652C513.599 275.521 514.605 277.204 514.931 277.055C515.085 276.995 515.049 276.454 514.617 275.702C514.195 274.959 513.326 274.03 512.08 273.479C510.833 272.929 509.583 272.919 508.771 273.117C507.949 273.316 507.544 273.66 507.608 273.819Z" fill="#121011"/>
<path d="M493.739 285.381C493.8 285.272 492.654 284.501 490.758 283.345C490.273 283.065 489.836 282.747 489.905 282.36C489.95 281.939 490.409 281.484 490.921 281.002C491.953 279.983 493.032 278.915 494.166 277.795C498.733 273.205 502.283 269.34 502.096 269.157C501.909 268.975 498.058 272.547 493.49 277.137C492.376 278.274 491.313 279.357 490.299 280.396C489.846 280.888 489.221 281.398 489.139 282.277C489.106 282.72 489.357 283.164 489.644 283.397C489.926 283.643 490.211 283.777 490.456 283.905C492.429 284.92 493.681 285.492 493.739 285.381Z" fill="#121011"/>
<path d="M498.996 289.392C498.68 289.228 497.707 291.393 495.163 292.101C492.621 292.815 490.42 291.538 490.268 291.833C490.176 291.956 490.594 292.485 491.557 292.948C492.499 293.409 494.033 293.727 495.588 293.293C497.142 292.856 498.191 291.816 498.664 290.959C499.151 290.09 499.15 289.445 498.996 289.392Z" fill="#121011"/>
<path d="M510.594 265.765C510.548 266.395 512.656 267.03 514.873 268.36C517.116 269.646 518.697 271.177 519.226 270.829C519.469 270.658 519.367 270 518.838 269.133C518.317 268.269 517.332 267.23 515.996 266.444C514.658 265.661 513.271 265.309 512.263 265.274C511.249 265.236 510.625 265.469 510.594 265.765Z" fill="#121011"/>
<path d="M491.472 259.216C491.621 259.826 493.205 259.971 494.869 260.69C496.558 261.35 497.786 262.361 498.322 262.031C498.566 261.863 498.548 261.31 498.128 260.608C497.717 259.91 496.865 259.11 495.713 258.635C494.56 258.163 493.392 258.132 492.609 258.339C491.818 258.545 491.417 258.925 491.472 259.216Z" fill="#121011"/>
<path d="M525.69 290.107C525.954 290.111 535.797 291.462 531.539 300.216C527.281 308.97 519.371 302.889 519.478 302.632C519.585 302.372 525.69 290.107 525.69 290.107Z" fill="#FFBE9D"/>
<path d="M523.765 300.615C523.817 300.606 523.865 300.796 524.066 301.04C524.261 301.277 524.655 301.567 525.194 301.617C526.284 301.728 527.777 300.637 528.586 299.081C528.996 298.294 529.198 297.455 529.222 296.689C529.267 295.918 529.07 295.27 528.645 294.961C528.234 294.628 527.769 294.747 527.541 294.94C527.304 295.129 527.275 295.329 527.221 295.322C527.186 295.333 527.103 295.084 527.351 294.757C527.472 294.602 527.674 294.444 527.962 294.377C528.256 294.308 528.607 294.372 528.914 294.564C529.568 294.939 529.872 295.854 529.848 296.696C529.858 297.558 529.649 298.51 529.189 299.393C528.275 301.13 526.57 302.341 525.125 302.092C524.432 301.954 524.007 301.519 523.843 301.182C523.679 300.834 523.727 300.617 523.765 300.615Z" fill="#EB996E"/>
<path d="M530.767 292.018C529.559 291.085 526.656 291.286 525.512 292.296C524.366 293.306 523.596 294.686 522.453 295.697C521.31 296.708 519.495 297.273 518.282 296.347C517.446 295.708 517.169 294.531 517.339 293.492C517.508 292.452 518.047 291.515 518.595 290.615C520.974 286.701 523.687 282.979 525.723 278.877C527.758 274.775 529.106 270.168 528.505 265.628C527.904 261.087 525.047 256.669 520.729 255.139C517.869 254.127 514.693 254.433 511.78 253.589C508.325 252.59 505.402 249.903 504.112 246.546C503.947 246.116 502.97 244.581 502.97 244.581C503.067 244.367 504.1 242.603 505.134 242.254C512.825 239.656 523.257 242.639 529.633 247.664C536.01 252.689 540.475 260.776 540.553 268.892C540.627 277.011 535.519 285.965 530.767 292.018Z" fill="#121011"/>
<path d="M530.851 291.14C533.283 287.005 537.23 284.005 540.243 280.273C543.255 276.539 545.325 271.277 543.181 266.986C542.448 265.519 541.275 264.291 540.663 262.77C540.048 261.241 540.046 259.547 539.809 257.916C539.078 252.876 535.892 248.248 531.442 245.768C528.367 244.052 524.816 243.349 521.698 241.711C516.761 239.116 513.15 234.305 507.962 232.254C506.241 231.573 504.226 231.243 502.58 232.091C500.935 232.94 500.052 235.326 501.251 236.738C501.038 235.082 498.892 234.173 497.37 234.861C495.849 235.549 495.07 237.36 495.173 239.026C495.277 240.691 496.103 242.228 497.059 243.596C500.209 248.108 505.027 251.426 510.364 252.76L522.293 251.83L532.071 259.077L539.31 270.596L526.186 287.646L530.851 291.14Z" fill="#121011"/>
<path d="M456.223 223.145C454.723 199.928 434.685 182.323 411.467 183.823C388.25 185.323 370.645 205.361 372.145 228.578C373.232 245.388 384.037 259.248 398.729 265.053C399.05 270.035 399.413 275.658 399.413 275.658L436.259 273.276C436.259 273.276 436.097 267.31 435.836 261.991C448.924 254.135 457.275 239.428 456.223 223.145Z" fill="#FFC91E"/>
<path d="M422.924 273.964C422.924 273.964 422.917 273.786 422.933 273.442C422.95 273.078 422.974 272.57 423.007 271.915C423.083 270.572 423.194 268.593 423.401 266.048C423.612 263.503 423.909 260.389 424.483 256.802C425.074 253.223 425.931 249.148 427.541 244.856C428.348 242.711 429.3 240.507 430.593 238.341C431.26 237.28 432.114 236.231 433.301 235.575C434.486 234.911 436.015 234.811 437.301 235.447C437.937 235.761 438.495 236.325 438.739 237.025C439.007 237.711 438.988 238.514 438.702 239.193C438.139 240.565 436.959 241.571 435.635 242.202C432.922 243.353 429.706 243.315 426.855 242.148C423.995 240.983 421.613 238.538 420.467 235.518C419.914 234.016 419.558 232.354 419.905 230.685C420.196 229.029 421.687 227.467 423.536 227.517C424.452 227.526 425.317 228.094 425.772 228.862C426.244 229.624 426.411 230.55 426.276 231.431C425.984 233.211 424.804 234.605 423.591 235.799C421.084 238.16 417.553 239.61 413.976 239.276C410.424 238.941 407.115 236.821 405.456 233.741C404.593 232.231 404.288 230.349 404.842 228.668C405.122 227.839 405.715 227.042 406.565 226.689C407.4 226.304 408.38 226.397 409.169 226.76C409.968 227.118 410.638 227.749 411.063 228.49C411.502 229.228 411.737 230.054 411.861 230.87C412.086 232.509 411.958 234.161 411.533 235.715C410.705 238.829 408.694 241.542 406.062 243.147C403.443 244.77 400.317 245.357 397.441 244.904C396.021 244.685 394.552 244.218 393.527 243.142C392.525 242.091 392.15 240.349 393.033 239.107C393.474 238.509 394.17 238.16 394.863 238.061C395.559 237.966 396.263 238.063 396.893 238.322C398.181 238.858 399.019 239.966 399.653 241.041C400.858 243.252 401.848 245.412 402.843 247.472C406.752 255.729 409.589 262.556 411.499 267.289C412.452 269.656 413.164 271.507 413.643 272.763C413.871 273.378 414.047 273.854 414.175 274.196C414.293 274.521 414.339 274.69 414.339 274.69C414.339 274.69 414.258 274.533 414.125 274.215C413.987 273.876 413.793 273.406 413.546 272.799C413.028 271.536 412.276 269.708 411.312 267.363C409.345 262.654 406.46 255.853 402.513 247.628C401.514 245.585 400.496 243.399 399.309 241.241C398.694 240.199 397.882 239.169 396.738 238.704C395.629 238.245 394.122 238.345 393.379 239.357C392.65 240.363 392.955 241.917 393.849 242.834C394.763 243.795 396.138 244.246 397.512 244.452C400.28 244.878 403.297 244.305 405.812 242.737C408.335 241.191 410.263 238.58 411.056 235.582C411.464 234.089 411.581 232.494 411.365 230.939C411.155 229.409 410.406 227.844 408.962 227.215C408.269 226.9 407.455 226.829 406.771 227.149C406.073 227.439 405.578 228.091 405.326 228.829C404.834 230.337 405.093 232.07 405.91 233.491C407.476 236.403 410.647 238.44 414.025 238.754C417.429 239.076 420.828 237.688 423.239 235.419C424.414 234.272 425.523 232.922 425.772 231.35C425.891 230.583 425.741 229.774 425.34 229.124C424.948 228.473 424.263 228.029 423.519 228.018C422.775 227.992 422.027 228.319 421.473 228.829C420.908 229.332 420.558 230.04 420.396 230.788C420.075 232.299 420.399 233.9 420.93 235.338C422.022 238.234 424.306 240.586 427.04 241.704C429.76 242.834 432.889 242.865 435.445 241.785C436.686 241.205 437.795 240.242 438.291 239.029C438.823 237.823 438.257 236.359 437.106 235.825C435.979 235.259 434.567 235.335 433.501 235.934C432.404 236.536 431.585 237.521 430.932 238.552C429.66 240.66 428.694 242.864 427.885 244.982C426.264 249.235 425.385 253.283 424.77 256.847C424.17 260.417 423.845 263.524 423.603 266.062C423.391 268.588 423.226 270.558 423.112 271.918C423.059 272.571 423.017 273.078 422.988 273.442C422.953 273.79 422.924 273.964 422.924 273.964Z" fill="#121011"/>
<path d="M433.864 280.283L402.23 282.328C400.918 282.412 399.786 281.419 399.702 280.107C399.617 278.796 400.61 277.664 401.922 277.579L433.556 275.535C434.868 275.45 436 276.444 436.085 277.755C436.169 279.067 435.176 280.199 433.864 280.283Z" fill="#121011"/>
<path d="M433.999 282.357L402.364 284.401C401.053 284.486 400.059 285.618 400.144 286.929C400.229 288.241 401.36 289.234 402.672 289.15L406.144 288.925L411.317 297.396C411.91 298.365 412.99 298.925 414.122 298.852L425.426 298.122C426.57 298.047 427.578 297.339 428.034 296.286L431.946 287.258L434.306 287.106C435.618 287.021 436.612 285.889 436.527 284.577C436.441 283.266 435.31 282.272 433.999 282.357Z" fill="#121011"/>
<g opacity="0.2">
<path d="M385.446 200.821C388.103 198.029 390.947 196.005 393.503 194.682C396.059 193.351 398.281 192.643 399.861 192.38C401.442 192.112 402.356 192.207 402.454 192.537C402.686 193.289 399.572 194.626 395.464 197.771C391.369 200.854 386.327 206.111 383.541 213.259C380.776 220.417 380.954 227.7 381.9 232.739C382.812 237.833 384.21 240.918 383.531 241.317C383.235 241.493 382.496 240.947 381.509 239.684C380.521 238.424 379.356 236.404 378.368 233.698C377.374 230.997 376.638 227.586 376.558 223.731C376.472 219.885 377.108 215.594 378.715 211.388" fill="white"/>
</g>
<g opacity="0.2">
<path d="M412.681 193.697C410.014 193.844 407.616 193.268 407.253 191.874C407.09 191.183 407.535 190.405 408.459 189.76C409.378 189.118 410.78 188.625 412.373 188.53C413.966 188.437 415.416 188.758 416.404 189.287C417.4 189.817 417.934 190.536 417.854 191.243" fill="white"/>
</g>
<path d="M427.491 297.074C427.458 297.156 426.639 296.843 425.274 296.546C423.913 296.245 421.982 296.022 419.864 296.216C417.747 296.418 415.891 296.997 414.609 297.544C413.323 298.09 412.577 298.548 412.53 298.476C412.497 298.431 413.178 297.857 414.457 297.211C415.729 296.563 417.631 295.908 419.817 295.699C422.003 295.498 423.994 295.789 425.364 296.188C426.74 296.587 427.515 297.024 427.491 297.074Z" fill="#455A64"/>
<path d="M432.019 287.361C432.027 287.503 426.316 287.989 419.262 288.445C412.207 288.901 406.48 289.155 406.472 289.011C406.463 288.87 412.173 288.384 419.23 287.928C426.283 287.472 432.01 287.218 432.019 287.361Z" fill="#455A64"/>
<path d="M430.282 291.241C430.291 291.31 429.109 291.514 427.187 291.759C425.266 292.004 422.606 292.288 419.66 292.521C416.714 292.753 414.04 292.891 412.105 292.948C410.17 293.007 408.971 292.991 408.967 292.92C408.964 292.848 410.156 292.734 412.084 292.582C414.168 292.423 416.755 292.224 419.618 292.004C422.478 291.773 425.065 291.564 427.147 291.394C429.078 291.242 430.273 291.168 430.282 291.241Z" fill="#455A64"/>
<path d="M202.461 502.871L209.329 513.876C209.329 513.876 238.638 486.906 267.713 494.529C267.713 494.529 241.584 472.373 202.461 502.871Z" fill="#121011"/>
<path d="M267.713 494.529C267.713 494.529 289.227 471.169 320.772 476.498L329.374 477.794L326.626 472.824C326.626 472.824 271.764 454.034 267.713 494.529Z" fill="#121011"/>
<path d="M222.305 415.759C222.305 415.759 179.212 408.345 150.947 423.637L195.827 508.136C195.827 508.136 232.562 472.726 267.715 494.531L222.305 415.759Z" fill="white"/>
<path d="M222.305 415.759C222.31 415.75 222.388 415.866 222.535 416.102C222.696 416.369 222.908 416.718 223.181 417.167C223.762 418.148 224.591 419.552 225.664 421.366C227.842 425.095 231.002 430.505 235.006 437.362C243.034 451.207 254.442 470.884 268.045 494.341C268.151 494.523 268.088 494.756 267.907 494.86C267.783 494.932 267.63 494.923 267.515 494.853C262.64 491.86 257.04 489.589 250.993 488.511C247.964 488.013 244.843 487.802 241.679 487.865C238.517 487.992 235.322 488.392 232.137 489.066C219.409 491.889 207.043 498.801 196.492 508.099L196.122 508.443C195.951 508.607 195.68 508.602 195.516 508.433C195.49 508.405 195.462 508.367 195.445 508.336C178.773 476.887 163.321 447.737 150.633 423.802C150.539 423.635 150.6 423.424 150.768 423.331L150.776 423.326C160.659 418.216 170.686 416.001 179.501 414.824C188.355 413.682 196.131 413.644 202.487 413.825C208.847 414.036 213.81 414.547 217.175 414.962C218.858 415.166 220.142 415.363 221.004 415.506C221.413 415.579 221.733 415.636 221.982 415.681C222.205 415.724 222.31 415.75 222.305 415.759C222.3 415.766 222.182 415.755 221.966 415.731C221.718 415.7 221.398 415.662 220.988 415.612C220.123 415.505 218.835 415.342 217.15 415.171C213.783 414.824 208.825 414.38 202.476 414.229C196.134 414.11 188.383 414.203 179.577 415.391C170.812 416.609 160.861 418.864 151.115 423.946L151.258 423.471C163.983 447.384 179.483 476.51 196.205 507.934L195.528 507.826L195.912 507.469C201.23 502.705 207.047 498.711 213.093 495.414C219.151 492.147 225.502 489.646 231.961 488.253C235.192 487.574 238.438 487.173 241.653 487.049C244.871 486.99 248.045 487.21 251.128 487.723C257.281 488.832 262.975 491.158 267.912 494.208L267.382 494.721C253.927 471.245 242.642 451.554 234.702 437.697C230.765 430.78 227.658 425.32 225.517 421.556C224.475 419.704 223.67 418.269 223.107 417.265C222.849 416.795 222.649 416.429 222.497 416.151C222.364 415.899 222.298 415.767 222.305 415.759Z" fill="#121011"/>
<path d="M290.041 398.42C290.041 398.42 257.444 377.644 222.858 415.759L268.268 494.529C268.268 494.529 277.535 462.558 331.748 473.678L290.041 398.42Z" fill="white"/>
<path d="M290.041 398.42C290.048 398.413 290.12 398.523 290.257 398.75C290.407 399.006 290.603 399.339 290.855 399.769C291.39 400.709 292.154 402.049 293.141 403.78C295.144 407.343 298.047 412.508 301.726 419.054C309.094 432.271 319.571 451.062 332.078 473.495C332.18 473.676 332.114 473.906 331.933 474.008C331.855 474.051 331.769 474.065 331.687 474.051L331.672 474.047C329.031 473.614 326.341 473.171 323.6 472.72C322.235 472.446 320.837 472.37 319.431 472.257C318.024 472.145 316.605 472.033 315.176 471.919C313.747 471.751 312.303 471.786 310.848 471.813C309.393 471.832 307.927 471.849 306.45 471.868C304.974 471.903 303.505 472.169 302.018 472.307C300.535 472.496 299.023 472.575 297.561 472.98C296.085 473.313 294.601 473.648 293.106 473.987C291.662 474.492 290.21 475 288.75 475.511C287.288 476.017 285.944 476.823 284.522 477.467C283.801 477.778 283.141 478.198 282.488 478.634L280.501 479.907C279.191 480.781 278.017 481.858 276.78 482.853C275.692 484.009 274.465 485.053 273.513 486.351C271.475 488.805 269.735 491.633 268.681 494.645L268.672 494.668C268.595 494.891 268.349 495.008 268.126 494.93C268.026 494.896 267.947 494.825 267.897 494.74C267.318 493.738 266.692 492.653 266.067 491.564C250.01 463.662 235.049 437.661 222.547 415.935C222.466 415.797 222.49 415.624 222.592 415.511C230.271 407.138 238.745 400.747 247.192 397.017C255.619 393.193 263.841 392.241 270.395 392.662C276.993 393.07 281.992 394.677 285.239 395.989C286.872 396.647 288.071 397.266 288.869 397.696C289.241 397.914 289.533 398.083 289.759 398.214C289.954 398.347 290.048 398.413 290.041 398.42C290.034 398.427 289.927 398.373 289.728 398.266C289.497 398.147 289.199 397.995 288.817 397.799C288.005 397.402 286.794 396.82 285.158 396.198C281.9 394.957 276.915 393.429 270.371 393.085C263.869 392.73 255.747 393.728 247.428 397.559C239.091 401.297 230.722 407.661 223.124 416.002L223.169 415.579C235.706 437.286 250.706 463.263 266.806 491.141C267.433 492.228 268.059 493.313 268.636 494.317L267.853 494.412C268.982 491.188 270.751 488.352 272.847 485.815C273.827 484.485 275.08 483.415 276.2 482.231C277.465 481.212 278.671 480.111 280.01 479.218L282.042 477.918C282.712 477.474 283.388 477.047 284.121 476.729C285.571 476.071 286.946 475.252 288.436 474.739C289.923 474.22 291.403 473.705 292.873 473.194C294.39 472.852 295.899 472.513 297.397 472.176C298.885 471.767 300.414 471.689 301.916 471.5C303.423 471.36 304.912 471.096 306.403 471.063C307.895 471.048 309.375 471.03 310.846 471.015C312.317 470.989 313.775 470.958 315.214 471.129C316.656 471.246 318.085 471.364 319.503 471.48C320.92 471.595 322.332 471.678 323.702 471.957C326.458 472.416 329.166 472.869 331.82 473.313L331.414 473.866C319.038 451.399 308.67 432.579 301.378 419.341C297.772 412.741 294.928 407.533 292.965 403.943C292.016 402.18 291.28 400.813 290.765 399.856C290.532 399.41 290.35 399.063 290.21 398.797C290.093 398.553 290.034 398.427 290.041 398.42Z" fill="#121011"/>
<path d="M163.085 383.018L211.683 476.591C211.683 476.591 251.18 474.863 267.896 494.111L222.858 415.757C222.858 415.757 196.447 383.018 163.085 383.018Z" fill="white"/>
<path d="M163.085 383.018C163.085 383.018 163.486 383.025 164.317 383.058C165.2 383.094 166.449 383.144 168.063 383.212C168.476 383.236 168.92 383.241 169.376 383.289C169.827 383.364 170.301 383.442 170.795 383.523C171.79 383.689 172.874 383.868 174.044 384.064C175.229 384.205 176.447 384.603 177.766 384.952C179.07 385.349 180.508 385.617 181.934 386.186C193.548 390.051 209.124 399.419 223.129 415.537L223.155 415.572L223.16 415.582C235.984 437.846 251.506 464.799 268.266 493.897C268.384 494.103 268.315 494.364 268.109 494.483C267.938 494.581 267.727 494.548 267.594 494.415L267.572 494.393C266.97 493.795 266.319 493.147 265.666 492.497C262.051 488.993 257.772 486.228 253.226 484.276C248.704 482.278 244.033 480.733 239.324 479.72C229.931 477.611 220.556 476.816 211.7 476.992H211.69C211.533 476.995 211.394 476.907 211.327 476.776C197.159 449.303 185.056 425.833 176.477 409.194C172.245 400.95 168.882 394.399 166.56 389.873C165.431 387.665 164.557 385.951 163.947 384.757C163.667 384.202 163.451 383.772 163.289 383.448C163.143 383.158 163.074 383.013 163.085 383.018C163.095 383.023 163.183 383.182 163.347 383.485C163.525 383.817 163.76 384.257 164.065 384.826C164.702 386.034 165.616 387.763 166.793 389.996C169.172 394.523 172.616 401.078 176.952 409.329C185.59 425.843 197.776 449.138 212.041 476.406L211.667 476.19C220.625 475.995 230.024 476.779 239.514 478.898C244.266 479.914 248.991 481.471 253.58 483.496C258.19 485.475 262.561 488.288 266.269 491.884C266.938 492.551 267.606 493.216 268.223 493.83L267.527 494.324C250.817 465.197 235.339 438.217 222.554 415.933L222.585 415.978C215.744 407.936 208.286 401.637 201.313 396.73C194.275 391.893 187.581 388.531 181.806 386.564C180.392 385.985 178.969 385.705 177.676 385.294C176.37 384.931 175.16 384.52 173.985 384.364C172.824 384.153 171.747 383.958 170.761 383.779C170.268 383.689 169.798 383.602 169.35 383.521C168.905 383.466 168.481 383.454 168.082 383.419C165.113 383.182 163.734 383.07 163.085 383.018Z" fill="#121011"/>
<path d="M314.779 648.408L315.823 650.141C316.994 652.087 318.698 653.658 320.734 654.663L322.548 655.56L320.813 656.604C318.867 657.775 317.297 659.479 316.291 661.515L315.394 663.329L314.35 661.596C313.179 659.65 311.475 658.079 309.439 657.074L307.625 656.177L309.358 655.133C311.304 653.962 312.875 652.258 313.88 650.222L314.779 648.408Z" fill="#FFC91E"/>
<path d="M218.973 291.982L220.017 293.715C221.189 295.661 222.893 297.232 224.928 298.237L226.743 299.134L225.009 300.178C223.064 301.349 221.493 303.053 220.485 305.089L219.589 306.903L218.545 305.17C217.373 303.224 215.67 301.654 213.634 300.648L211.82 299.751L213.554 298.707C215.5 297.536 217.071 295.832 218.077 293.796L218.973 291.982Z" fill="#FFC91E"/>
<path d="M662.354 353.476L663.398 355.211C664.569 357.157 666.273 358.728 668.309 359.733L670.123 360.63L668.39 361.674C666.444 362.846 664.874 364.549 663.866 366.585L662.969 368.399L661.926 366.666C660.754 364.72 659.05 363.15 657.015 362.144L655.2 361.247L656.933 360.203C658.879 359.032 660.45 357.328 661.455 355.292L662.354 353.476Z" fill="#FFC91E"/>
<path d="M609.994 670.792L611.038 672.527C612.209 674.473 613.913 676.044 615.949 677.049L617.763 677.946L616.03 678.99C614.084 680.162 612.513 681.865 611.508 683.901L610.611 685.715L609.567 683.982C608.396 682.036 606.692 680.466 604.656 679.458L602.842 678.561L604.577 677.518C606.522 676.346 608.093 674.642 609.099 672.607L609.994 670.792Z" fill="#FFC91E"/>
<path d="M619.961 737.476L620.46 737.676C621.02 737.901 621.634 737.961 622.228 737.849L622.757 737.749L622.556 738.248C622.332 738.808 622.271 739.422 622.384 740.016L622.484 740.545L621.985 740.344C621.425 740.12 620.809 740.059 620.217 740.172L619.688 740.272L619.888 739.772C620.115 739.213 620.174 738.597 620.061 738.005L619.961 737.476Z" fill="#FFC91E"/>
<path d="M650.109 286.585L650.609 286.786C651.169 287.012 651.782 287.071 652.377 286.959L652.905 286.858L652.705 287.358C652.48 287.918 652.42 288.533 652.532 289.126L652.632 289.654L652.133 289.454C651.573 289.228 650.958 289.169 650.365 289.281L649.836 289.381L650.037 288.882C650.262 288.32 650.322 287.709 650.21 287.114L650.109 286.585Z" fill="#FFC91E"/>
<path d="M238.457 245.418L238.956 245.618C239.516 245.843 240.129 245.903 240.724 245.791L241.253 245.691L241.052 246.19C240.827 246.75 240.767 247.365 240.879 247.958L240.98 248.486L240.48 248.286C239.919 248.06 239.305 248.001 238.712 248.113L238.184 248.213L238.384 247.714C238.61 247.154 238.669 246.541 238.557 245.946L238.457 245.418Z" fill="#FFC91E"/>
<path d="M289.262 596.497L289.761 596.697C290.321 596.922 290.936 596.983 291.529 596.87L292.057 596.77L291.857 597.269C291.631 597.829 291.572 598.444 291.684 599.037L291.784 599.566L291.285 599.365C290.725 599.139 290.11 599.08 289.517 599.193L288.989 599.293L289.189 598.794C289.414 598.234 289.474 597.62 289.362 597.026L289.262 596.497Z" fill="#FFC91E"/>
<path d="M344.342 732.2C344.342 732.2 344.191 732.38 343.87 732.705C343.522 733.049 343.047 733.522 342.434 734.131C341.133 735.397 339.258 737.224 336.851 739.569C331.948 744.296 324.886 751.108 316.137 759.548L316.218 759.344C317.203 781.027 318.541 810.496 320.03 843.269L320.065 844.011L319.446 843.598C317.07 842.01 314.528 840.311 311.967 838.598C294.905 827.176 278.755 816.364 264.543 806.848L264.446 806.784L264.409 806.675C257.333 785.544 251.365 767.719 247.152 755.141C245.084 748.886 243.445 743.937 242.314 740.515C241.773 738.844 241.353 737.547 241.059 736.634C240.929 736.214 240.827 735.886 240.75 735.632C240.682 735.406 240.653 735.29 240.662 735.287C240.67 735.283 240.717 735.394 240.802 735.613C240.893 735.862 241.011 736.183 241.163 736.598C241.481 737.504 241.933 738.789 242.517 740.446C243.691 743.852 245.389 748.782 247.536 755.012C251.811 767.569 257.869 785.364 265.051 806.459L264.917 806.287C279.142 815.784 295.308 826.575 312.384 837.975C314.945 839.687 317.487 841.387 319.863 842.975L319.279 843.304C317.876 810.527 316.612 781.054 315.684 759.368L315.679 759.247L315.767 759.164C324.587 750.799 331.705 744.046 336.647 739.359C339.095 737.059 341.005 735.266 342.328 734.023C342.964 733.438 343.457 732.983 343.816 732.651C344.155 732.342 344.342 732.2 344.342 732.2Z" fill="#FFC91E"/>
<path d="M322.265 833.399L322.114 838.291L326.059 841.19L321.359 842.557L319.821 847.206L317.069 843.157L312.173 843.131L315.171 839.262L313.683 834.598L318.29 836.255L322.265 833.399Z" fill="#FFC91E"/>
<path d="M265.139 800.195L265.234 803.361L267.897 805.079L264.914 806.148L264.104 809.21L262.165 806.705L259.003 806.881L260.786 804.263L259.642 801.308L262.683 802.196L265.139 800.195Z" fill="#FFC91E"/>
<path d="M240.53 729.474L242.92 732.542L246.801 732.313L244.622 735.532L246.039 739.154L242.303 738.076L239.298 740.543L239.169 736.657L235.894 734.561L239.549 733.235L240.53 729.474Z" fill="#FFC91E"/>
<path d="M341.953 726.406L344.342 729.474L348.223 729.245L346.044 732.465L347.461 736.087L343.725 735.008L340.72 737.474L340.59 733.588L337.316 731.492L340.97 730.168L341.953 726.406Z" fill="#FFC91E"/>
<path d="M315.327 756.035L316.853 757.992L319.329 757.846L317.938 759.902L318.843 762.212L316.459 761.524L314.54 763.099L314.458 760.619L312.368 759.282L314.701 758.435L315.327 756.035Z" fill="#FFC91E"/>
<path d="M223.876 625.348C242.91 625.348 258.341 609.917 258.341 590.883C258.341 571.848 242.91 556.418 223.876 556.418C204.841 556.418 189.411 571.848 189.411 590.883C189.411 609.917 204.841 625.348 223.876 625.348Z" fill="#FFC91E"/>
<g opacity="0.3">
<path d="M219.397 601.641C219.397 604.747 216.881 607.262 213.776 607.262C210.67 607.262 208.154 604.747 208.154 601.641C208.154 598.538 210.67 596.02 213.776 596.02C216.881 596.02 219.397 598.536 219.397 601.641Z" fill="white"/>
</g>
<g opacity="0.3">
<path d="M211.424 585.421C211.424 587.226 209.96 588.69 208.154 588.69C206.349 588.69 204.885 587.226 204.885 585.421C204.885 583.615 206.349 582.151 208.154 582.151C209.96 582.151 211.424 583.615 211.424 585.421Z" fill="white"/>
</g>
<path d="M190.442 599.265C190.596 599.863 160.945 628.313 168.588 634.375C176.231 640.437 208.384 624.886 235.792 602.749C263.2 580.612 288.237 553.729 281.385 546.613C274.534 539.497 240.28 560.565 240.28 560.565L244.373 563.174C244.373 563.174 265.083 549.888 271.634 555.044C278.185 560.202 259.511 580.344 233.157 599.583C206.803 618.823 181.338 632.327 177.386 627.057C173.432 621.786 192.086 604.204 192.086 604.204L190.442 599.265Z" fill="#FFC91E"/>
<g opacity="0.3">
<path d="M190.442 599.265C190.596 599.863 160.945 628.313 168.588 634.375C176.231 640.437 208.384 624.886 235.792 602.749C263.2 580.612 288.237 553.729 281.385 546.613C274.534 539.497 240.28 560.565 240.28 560.565L244.373 563.174C244.373 563.174 265.083 549.888 271.634 555.044C278.185 560.202 259.511 580.344 233.157 599.583C206.803 618.823 181.338 632.327 177.386 627.057C173.432 621.786 192.086 604.204 192.086 604.204L190.442 599.265Z" fill="black"/>
</g>
<g opacity="0.3">
<path d="M204.885 566.606C205.163 566.938 202.827 568.922 200.183 572.901C197.538 576.82 194.771 583.026 194.619 590.223C194.484 597.423 197.002 603.736 199.489 607.757C201.972 611.838 204.227 613.912 203.935 614.233C203.76 614.473 200.99 612.875 197.925 608.811C196.399 606.794 194.878 604.143 193.739 600.967C192.597 597.8 191.892 594.09 191.951 590.169C192.049 586.252 192.901 582.575 194.168 579.454C195.433 576.326 197.057 573.739 198.663 571.783C201.887 567.849 204.719 566.359 204.885 566.606Z" fill="white"/>
</g>
<path d="M697.866 755.722C709.202 744.858 709.585 726.862 698.722 715.526C687.858 704.19 669.862 703.807 658.526 714.67C647.19 725.534 646.807 743.53 657.67 754.866C668.534 766.202 686.53 766.585 697.866 755.722Z" fill="#FFC91E"/>
<g opacity="0.4">
<path d="M687.464 724.324C687.524 721.763 689.65 719.737 692.209 719.798C694.77 719.858 696.795 721.984 696.735 724.543C696.674 727.102 694.549 729.129 691.99 729.069C689.429 729.008 687.403 726.883 687.464 724.324Z" fill="black"/>
</g>
<g opacity="0.4">
<path d="M696.736 735.148C696.771 733.658 698.008 732.48 699.498 732.514C700.987 732.549 702.166 733.786 702.129 735.276C702.095 736.765 700.858 737.944 699.37 737.907C697.88 737.873 696.702 736.637 696.736 735.148Z" fill="black"/>
</g>
<g opacity="0.4">
<path d="M693.118 743.43C693.667 743.444 694.101 743.898 694.089 744.448C694.075 744.997 693.621 745.431 693.071 745.419C692.522 745.405 692.088 744.951 692.1 744.401C692.112 743.852 692.568 743.418 693.118 743.43Z" fill="black"/>
</g>
<defs>
<filter id="filter0_d_182_999" x="291.619" y="152.38" width="29.2371" height="80.6088" filterUnits="userSpaceOnUse" color-interpolation-filters="sRGB">
<feFlood flood-opacity="0" result="BackgroundImageFix"/>
<feColorMatrix in="SourceAlpha" type="matrix" values="0 0 0 0 0 0 0 0 0 0 0 0 0 0 0 0 0 0 127 0" result="hardAlpha"/>
<feOffset dy="4"/>
<feGaussianBlur stdDeviation="2"/>
<feComposite in2="hardAlpha" operator="out"/>
<feColorMatrix type="matrix" values="0 0 0 0 0 0 0 0 0 0 0 0 0 0 0 0 0 0 0.25 0"/>
<feBlend mode="normal" in2="BackgroundImageFix" result="effect1_dropShadow_182_999"/>
<feBlend mode="normal" in="SourceGraphic" in2="effect1_dropShadow_182_999" result="shape"/>
</filter>
</defs>
</svg>
