<svg width="287" height="125" viewBox="0 0 287 125" fill="none" xmlns="http://www.w3.org/2000/svg">
<path d="M27.0008 70.3195C22.7403 70.3195 18.9325 69.3609 15.5774 67.4437C12.2755 65.4732 9.66597 62.8371 7.74875 59.5352C5.88479 56.1801 4.95281 52.3989 4.95281 48.1917C4.95281 43.8779 5.88479 40.0435 7.74875 36.6883C9.61271 33.3332 12.169 30.7237 15.4176 28.8597C18.6662 26.9425 22.3942 25.9839 26.6014 25.9839C29.7435 25.9839 32.6193 26.5963 35.2289 27.8212C37.8384 28.9928 40.1817 30.7769 42.2587 33.1734C43.0043 34.0255 43.2705 34.9043 43.0575 35.8096C42.8445 36.715 42.2587 37.5138 41.3001 38.2061C40.5545 38.7387 39.729 38.9251 38.8237 38.7653C37.9183 38.5523 37.0928 38.073 36.3472 37.3274C33.7377 34.5581 30.4891 33.1734 26.6014 33.1734C23.8853 33.1734 21.4888 33.8125 19.4118 35.0907C17.3348 36.3156 15.7105 38.0464 14.5389 40.2831C13.3673 42.5199 12.7814 45.1561 12.7814 48.1917C12.7814 51.0675 13.3673 53.6238 14.5389 55.8605C15.7638 58.0973 17.4414 59.8814 19.5716 61.2128C21.7018 62.4909 24.1782 63.13 27.0008 63.13C28.8648 63.13 30.4891 62.9169 31.8737 62.4909C33.3117 62.0116 34.6164 61.2926 35.7881 60.334C36.6402 59.6417 37.5189 59.2689 38.4242 59.2157C39.3296 59.1091 40.1284 59.3488 40.8208 59.9346C41.7261 60.6802 42.232 61.5323 42.3386 62.4909C42.4451 63.3963 42.1255 64.2217 41.3799 64.9673C37.5455 68.5355 32.7525 70.3195 27.0008 70.3195ZM77.774 70.3195C73.4603 70.3195 69.6524 69.3876 66.3506 67.5236C63.0487 65.6064 60.4392 62.9968 58.5219 59.695C56.658 56.3398 55.726 52.5054 55.726 48.1917C55.726 43.8247 56.658 39.9902 58.5219 36.6883C60.4392 33.3332 63.0487 30.7237 66.3506 28.8597C69.6524 26.9425 73.4603 25.9839 77.774 25.9839C82.0345 25.9839 85.8157 26.9425 89.1175 28.8597C92.4194 30.7237 95.0023 33.3332 96.8663 36.6883C98.7835 39.9902 99.7421 43.8247 99.7421 48.1917C99.7421 52.5054 98.8101 56.3398 96.9462 59.695C95.0822 62.9968 92.4993 65.6064 89.1974 67.5236C85.8955 69.3876 82.0877 70.3195 77.774 70.3195ZM77.774 63.13C80.5433 63.13 82.9931 62.4909 85.1233 61.2128C87.2536 59.9346 88.9045 58.1772 90.0761 55.9404C91.301 53.7037 91.9135 51.1207 91.9135 48.1917C91.9135 45.2626 91.301 42.6797 90.0761 40.4429C88.9045 38.1529 87.2536 36.3688 85.1233 35.0907C82.9931 33.8125 80.5433 33.1734 77.774 33.1734C75.0047 33.1734 72.5549 33.8125 70.4247 35.0907C68.2944 36.3688 66.6169 38.1529 65.392 40.4429C64.1671 42.6797 63.5546 45.2626 63.5546 48.1917C63.5546 51.1207 64.1671 53.7037 65.392 55.9404C66.6169 58.1772 68.2944 59.9346 70.4247 61.2128C72.5549 62.4909 75.0047 63.13 77.774 63.13ZM134.476 70.3195C130.162 70.3195 126.355 69.3876 123.053 67.5236C119.751 65.6064 117.141 62.9968 115.224 59.695C113.36 56.3398 112.428 52.5054 112.428 48.1917C112.428 43.8247 113.36 39.9902 115.224 36.6883C117.141 33.3332 119.751 30.7237 123.053 28.8597C126.355 26.9425 130.162 25.9839 134.476 25.9839C138.737 25.9839 142.518 26.9425 145.82 28.8597C149.121 30.7237 151.704 33.3332 153.568 36.6883C155.486 39.9902 156.444 43.8247 156.444 48.1917C156.444 52.5054 155.512 56.3398 153.648 59.695C151.784 62.9968 149.201 65.6064 145.899 67.5236C142.598 69.3876 138.79 70.3195 134.476 70.3195ZM134.476 63.13C137.245 63.13 139.695 62.4909 141.825 61.2128C143.956 59.9346 145.607 58.1772 146.778 55.9404C148.003 53.7037 148.616 51.1207 148.616 48.1917C148.616 45.2626 148.003 42.6797 146.778 40.4429C145.607 38.1529 143.956 36.3688 141.825 35.0907C139.695 33.8125 137.245 33.1734 134.476 33.1734C131.707 33.1734 129.257 33.8125 127.127 35.0907C124.996 36.3688 123.319 38.1529 122.094 40.4429C120.869 42.6797 120.257 45.2626 120.257 48.1917C120.257 51.1207 120.869 53.7037 122.094 55.9404C123.319 58.1772 124.996 59.9346 127.127 61.2128C129.257 62.4909 131.707 63.13 134.476 63.13ZM176.24 70C175.068 70 174.083 69.6272 173.284 68.8816C172.539 68.0828 172.166 67.0975 172.166 65.9259V30.3775C172.166 29.1526 172.539 28.1674 173.284 27.4218C174.083 26.6762 175.068 26.3034 176.24 26.3034C177.465 26.3034 178.45 26.6762 179.196 27.4218C179.941 28.1674 180.314 29.1526 180.314 30.3775V65.9259C180.314 67.0975 179.941 68.0828 179.196 68.8816C178.45 69.6272 177.465 70 176.24 70ZM176.24 19.1937C174.802 19.1937 173.55 18.6878 172.485 17.6759C171.473 16.6108 170.967 15.3593 170.967 13.9214C170.967 12.4835 171.473 11.2586 172.485 10.2467C173.55 9.1816 174.802 8.64904 176.24 8.64904C177.678 8.64904 178.903 9.1816 179.914 10.2467C180.98 11.2586 181.512 12.4835 181.512 13.9214C181.512 15.3593 180.98 16.6108 179.914 17.6759C178.903 18.6878 177.678 19.1937 176.24 19.1937ZM218.799 70.3195C214.378 70.3195 210.437 69.3876 206.976 67.5236C203.567 65.6064 200.878 62.9968 198.908 59.695C196.99 56.3398 196.032 52.5054 196.032 48.1917C196.032 43.8247 196.937 39.9902 198.748 36.6883C200.612 33.3332 203.168 30.7237 206.417 28.8597C209.665 26.9425 213.393 25.9839 217.6 25.9839C221.754 25.9839 225.323 26.9159 228.305 28.7798C231.287 30.5905 233.551 33.1202 235.095 36.3688C236.693 39.5642 237.492 43.2655 237.492 47.4727C237.492 48.4846 237.145 49.3367 236.453 50.029C235.761 50.6681 234.882 50.9876 233.817 50.9876H201.624V44.5969H233.577L230.302 46.8336C230.249 44.1708 229.716 41.8009 228.704 39.7239C227.692 37.5937 226.255 35.9161 224.391 34.6912C222.527 33.4664 220.263 32.8539 217.6 32.8539C214.565 32.8539 211.955 33.5196 209.772 34.851C207.642 36.1824 206.017 38.0197 204.899 40.363C203.78 42.653 203.221 45.2626 203.221 48.1917C203.221 51.1207 203.887 53.7303 205.218 56.0203C206.55 58.3103 208.387 60.121 210.73 61.4524C213.074 62.7838 215.763 63.4495 218.799 63.4495C220.45 63.4495 222.127 63.1566 223.831 62.5708C225.589 61.9317 227 61.2128 228.065 60.4139C228.864 59.8281 229.716 59.5352 230.622 59.5352C231.58 59.4819 232.406 59.7482 233.098 60.334C234.003 61.1329 234.483 62.0116 234.536 62.9702C234.589 63.9288 234.163 64.7543 233.258 65.4466C231.447 66.8845 229.184 68.0562 226.468 68.9615C223.805 69.8669 221.248 70.3195 218.799 70.3195ZM266.577 70.3195C262.849 70.3195 259.387 69.7603 256.192 68.642C253.05 67.4703 250.6 66.0058 248.843 64.2483C248.044 63.3963 247.698 62.4376 247.804 61.3725C247.964 60.2541 248.496 59.3488 249.402 58.6565C250.467 57.8044 251.505 57.4582 252.517 57.618C253.582 57.7245 254.488 58.1772 255.233 58.976C256.139 59.9879 257.577 60.9465 259.547 61.8518C261.571 62.7039 263.808 63.13 266.257 63.13C269.346 63.13 271.689 62.624 273.287 61.6122C274.938 60.6003 275.79 59.2955 275.843 57.6979C275.897 56.1002 275.124 54.7155 273.527 53.5439C271.982 52.3723 269.133 51.4136 264.979 50.6681C259.6 49.6029 255.686 48.0053 253.236 45.875C250.84 43.7448 249.641 41.1352 249.641 38.0464C249.641 35.3303 250.44 33.0936 252.038 31.3361C253.636 29.5254 255.686 28.194 258.189 27.3419C260.692 26.4366 263.302 25.9839 266.018 25.9839C269.533 25.9839 272.648 26.5431 275.364 27.6614C278.08 28.7798 280.237 30.3243 281.835 32.2947C282.58 33.1468 282.926 34.0522 282.873 35.0108C282.82 35.9161 282.367 36.6883 281.515 37.3274C280.663 37.9132 279.651 38.0996 278.48 37.8866C277.308 37.6736 276.323 37.1943 275.524 36.4487C274.192 35.1705 272.755 34.2918 271.21 33.8125C269.666 33.3332 267.882 33.0936 265.858 33.0936C263.515 33.0936 261.518 33.493 259.867 34.2918C258.269 35.0907 257.47 36.2623 257.47 37.8067C257.47 38.7653 257.71 39.6441 258.189 40.4429C258.722 41.1885 259.733 41.8808 261.225 42.5199C262.716 43.1057 264.899 43.6915 267.775 44.2773C271.769 45.0762 274.911 46.088 277.201 47.3129C279.545 48.5378 281.222 49.9757 282.234 51.6267C283.246 53.2243 283.752 55.0883 283.752 57.2186C283.752 59.6683 283.086 61.8785 281.755 63.8489C280.477 65.8194 278.559 67.3905 276.003 68.5621C273.5 69.7337 270.358 70.3195 266.577 70.3195Z" fill="white"/>
<circle cx="80.2937" cy="55.1077" r="6.88845" fill="white"/>
<circle cx="136.477" cy="55.1077" r="6.88845" fill="white"/>
<path d="M62.6225 81.8921C62.2495 79.9573 62.7689 78.8537 64.1808 78.5815C64.9129 78.4404 65.6472 78.7327 66.3838 79.4585C68.8832 82.0139 71.6964 84.5088 74.8233 86.9432C77.9081 89.4399 81.3607 91.5946 85.1813 93.4071C89.0019 95.2196 93.2236 96.4396 97.8462 97.067C102.531 97.7366 107.697 97.527 113.345 96.4382C117.529 95.6316 121.244 94.5085 124.492 93.0688C127.802 91.6713 130.68 90.1402 133.125 88.4756C135.633 86.8532 137.769 85.2752 139.534 83.7416C141.31 82.2604 142.775 81.0015 143.932 79.9651C145.15 78.9708 146.099 78.4082 146.779 78.2771C147.302 78.1763 147.777 78.2475 148.203 78.4907C148.682 78.7238 149.012 79.311 149.194 80.2522C149.395 81.2981 148.81 82.9025 147.437 85.0655C146.064 87.2284 143.912 89.5688 140.98 92.0865C138.101 94.5941 134.434 96.9552 129.98 99.1699C125.526 101.385 120.292 103.072 114.278 104.231C109.938 105.068 105.461 105.199 100.849 104.624C96.2363 104.049 91.7472 102.989 87.3816 101.444C83.0161 99.8991 79.0496 98.0333 75.4823 95.8465C71.9149 93.6598 69.0013 91.347 66.7412 88.9081C64.4289 86.4794 63.056 84.1407 62.6225 81.8921Z" fill="white"/>
</svg>
