<svg width="317" height="138" viewBox="0 0 317 138" fill="none" xmlns="http://www.w3.org/2000/svg">
<path d="M29.8 78.3527C25.0978 78.3527 20.8953 77.2947 17.1923 75.1787C13.5481 73.0039 10.6681 70.0945 8.55208 66.4503C6.49488 62.7473 5.46628 58.5741 5.46628 53.9308C5.46628 49.1698 6.49488 44.9378 8.55208 41.2349C10.6093 37.5319 13.4306 34.6518 17.016 32.5946C20.6014 30.4787 24.7158 29.4207 29.3592 29.4207C32.827 29.4207 36.001 30.0966 38.8811 31.4485C41.7612 32.7416 44.3474 34.7106 46.6397 37.3556C47.4626 38.296 47.7564 39.2658 47.5213 40.2651C47.2862 41.2643 46.6397 42.1459 45.5817 42.91C44.7588 43.4978 43.8478 43.7035 42.8486 43.5272C41.8493 43.2921 40.9383 42.7631 40.1154 41.9402C37.2353 38.8838 33.6499 37.3556 29.3592 37.3556C26.3616 37.3556 23.7166 38.0609 21.4243 39.4716C19.132 40.8234 17.3393 42.7337 16.0462 45.2023C14.7531 47.671 14.1065 50.5805 14.1065 53.9308C14.1065 57.1047 14.7531 59.926 16.0462 62.3947C17.398 64.8633 19.2495 66.8323 21.6006 68.3018C23.9517 69.7124 26.6848 70.4177 29.8 70.4177C31.8572 70.4177 33.6499 70.1826 35.1781 69.7124C36.7651 69.1834 38.2052 68.3899 39.4983 67.3319C40.4387 66.5678 41.4085 66.1564 42.4077 66.0976C43.4069 65.9801 44.2886 66.2446 45.0527 66.8911C46.0519 67.714 46.6103 68.6544 46.7278 69.7124C46.8454 70.7116 46.4927 71.6227 45.6699 72.4456C41.4379 76.3836 36.148 78.3527 29.8 78.3527ZM85.8369 78.3527C81.076 78.3527 76.8734 77.3241 73.2292 75.2669C69.585 73.1509 66.705 70.2708 64.589 66.6266C62.5318 62.9237 61.5032 58.6917 61.5032 53.9308C61.5032 49.111 62.5318 44.8791 64.589 41.2349C66.705 37.5319 69.585 34.6518 73.2292 32.5946C76.8734 30.4787 81.076 29.4207 85.8369 29.4207C90.5391 29.4207 94.7123 30.4787 98.3565 32.5946C102.001 34.6518 104.851 37.5319 106.909 41.2349C109.025 44.8791 110.083 49.111 110.083 53.9308C110.083 58.6917 109.054 62.9237 106.997 66.6266C104.94 70.2708 102.089 73.1509 98.4446 75.2669C94.8004 77.3241 90.5979 78.3527 85.8369 78.3527ZM85.8369 70.4177C88.8933 70.4177 91.5971 69.7124 93.9482 68.3018C96.2993 66.8911 98.1214 64.9515 99.4144 62.4828C100.766 60.0142 101.442 57.1635 101.442 53.9308C101.442 50.698 100.766 47.8473 99.4144 45.3787C98.1214 42.8513 96.2993 40.8822 93.9482 39.4716C91.5971 38.0609 88.8933 37.3556 85.8369 37.3556C82.7805 37.3556 80.0768 38.0609 77.7257 39.4716C75.3746 40.8822 73.5231 42.8513 72.1712 45.3787C70.8194 47.8473 70.1434 50.698 70.1434 53.9308C70.1434 57.1635 70.8194 60.0142 72.1712 62.4828C73.5231 64.9515 75.3746 66.8911 77.7257 68.3018C80.0768 69.7124 82.7805 70.4177 85.8369 70.4177ZM148.417 78.3527C143.656 78.3527 139.454 77.3241 135.81 75.2669C132.165 73.1509 129.285 70.2708 127.169 66.6266C125.112 62.9237 124.084 58.6917 124.084 53.9308C124.084 49.111 125.112 44.8791 127.169 41.2349C129.285 37.5319 132.165 34.6518 135.81 32.5946C139.454 30.4787 143.656 29.4207 148.417 29.4207C153.12 29.4207 157.293 30.4787 160.937 32.5946C164.581 34.6518 167.432 37.5319 169.489 41.2349C171.605 44.8791 172.663 49.111 172.663 53.9308C172.663 58.6917 171.634 62.9237 169.577 66.6266C167.52 70.2708 164.669 73.1509 161.025 75.2669C157.381 77.3241 153.178 78.3527 148.417 78.3527ZM148.417 70.4177C151.474 70.4177 154.178 69.7124 156.529 68.3018C158.88 66.8911 160.702 64.9515 161.995 62.4828C163.347 60.0142 164.023 57.1635 164.023 53.9308C164.023 50.698 163.347 47.8473 161.995 45.3787C160.702 42.8513 158.88 40.8822 156.529 39.4716C154.178 38.0609 151.474 37.3556 148.417 37.3556C145.361 37.3556 142.657 38.0609 140.306 39.4716C137.955 40.8822 136.104 42.8513 134.752 45.3787C133.4 47.8473 132.724 50.698 132.724 53.9308C132.724 57.1635 133.4 60.0142 134.752 62.4828C136.104 64.9515 137.955 66.8911 140.306 68.3018C142.657 69.7124 145.361 70.4177 148.417 70.4177ZM194.511 78C193.218 78 192.13 77.5886 191.249 76.7657C190.426 75.884 190.014 74.7966 190.014 73.5035V34.2698C190.014 32.9179 190.426 31.8305 191.249 31.0077C192.13 30.1848 193.218 29.7733 194.511 29.7733C195.863 29.7733 196.95 30.1848 197.773 31.0077C198.596 31.8305 199.007 32.9179 199.007 34.2698V73.5035C199.007 74.7966 198.596 75.884 197.773 76.7657C196.95 77.5886 195.863 78 194.511 78ZM194.511 21.9266C192.924 21.9266 191.543 21.3682 190.367 20.2514C189.25 19.0759 188.692 17.6946 188.692 16.1076C188.692 14.5207 189.25 13.1688 190.367 12.052C191.543 10.8765 192.924 10.2887 194.511 10.2887C196.098 10.2887 197.45 10.8765 198.566 12.052C199.742 13.1688 200.33 14.5207 200.33 16.1076C200.33 17.6946 199.742 19.0759 198.566 20.2514C197.45 21.3682 196.098 21.9266 194.511 21.9266ZM241.482 78.3527C236.603 78.3527 232.254 77.3241 228.433 75.2669C224.672 73.1509 221.703 70.2708 219.529 66.6266C217.413 62.9237 216.355 58.6917 216.355 53.9308C216.355 49.111 217.354 44.8791 219.352 41.2349C221.409 37.5319 224.231 34.6518 227.816 32.5946C231.402 30.4787 235.516 29.4207 240.159 29.4207C244.744 29.4207 248.682 30.4493 251.974 32.5065C255.265 34.5049 257.763 37.2968 259.468 40.8822C261.231 44.4088 262.113 48.4939 262.113 53.1373C262.113 54.254 261.731 55.1945 260.966 55.9586C260.202 56.6639 259.233 57.0166 258.057 57.0166H222.526V49.9633H257.792L254.178 52.4319C254.119 49.4931 253.531 46.8775 252.414 44.5852C251.298 42.2341 249.711 40.3826 247.653 39.0307C245.596 37.6789 243.098 37.0029 240.159 37.0029C236.809 37.0029 233.929 37.7376 231.519 39.2071C229.168 40.6765 227.375 42.7043 226.141 45.2905C224.907 47.8179 224.29 50.698 224.29 53.9308C224.29 57.1635 225.024 60.0436 226.494 62.571C227.963 65.0984 229.991 67.0968 232.577 68.5663C235.163 70.0357 238.132 70.7704 241.482 70.7704C243.304 70.7704 245.155 70.4471 247.036 69.8006C248.976 69.0953 250.534 68.3018 251.709 67.4201C252.591 66.7736 253.531 66.4503 254.53 66.4503C255.588 66.3915 256.499 66.6854 257.264 67.3319C258.263 68.2136 258.792 69.1834 258.85 70.2414C258.909 71.2994 258.439 72.2104 257.44 72.9746C255.441 74.5615 252.943 75.8546 249.946 76.8538C247.007 77.8531 244.186 78.3527 241.482 78.3527ZM294.213 78.3527C290.099 78.3527 286.278 77.7355 282.752 76.5012C279.284 75.2081 276.58 73.5917 274.64 71.6521C273.759 70.7116 273.377 69.6536 273.494 68.4781C273.671 67.2438 274.258 66.2446 275.258 65.4805C276.433 64.54 277.579 64.158 278.696 64.3343C279.872 64.4519 280.871 64.9515 281.694 65.8331C282.693 66.9499 284.28 68.0079 286.455 69.0071C288.688 69.9475 291.157 70.4177 293.861 70.4177C297.27 70.4177 299.856 69.8594 301.619 68.7426C303.441 67.6258 304.382 66.1858 304.44 64.4225C304.499 62.6592 303.647 61.131 301.884 59.8379C300.179 58.5448 297.035 57.4868 292.45 56.6639C286.513 55.4883 282.193 53.725 279.49 51.3739C276.845 49.0229 275.522 46.1428 275.522 42.7337C275.522 39.7361 276.404 37.2674 278.167 35.3278C279.93 33.3294 282.193 31.8599 284.956 30.9195C287.718 29.9203 290.598 29.4207 293.596 29.4207C297.475 29.4207 300.914 30.0378 303.911 31.2722C306.909 32.5065 309.29 34.211 311.053 36.3858C311.876 37.3262 312.258 38.3254 312.199 39.3834C312.14 40.3826 311.641 41.2349 310.7 41.9402C309.76 42.5868 308.643 42.7925 307.35 42.5574C306.057 42.3223 304.969 41.7933 304.088 40.9704C302.618 39.5597 301.031 38.5899 299.327 38.0609C297.622 37.5319 295.653 37.2674 293.42 37.2674C290.834 37.2674 288.629 37.7083 286.807 38.5899C285.044 39.4716 284.162 40.7647 284.162 42.4692C284.162 43.5272 284.427 44.497 284.956 45.3787C285.544 46.2016 286.66 46.9657 288.306 47.671C289.952 48.3175 292.362 48.9641 295.536 49.6106C299.944 50.4923 303.412 51.6091 305.939 52.9609C308.525 54.3128 310.377 55.8998 311.494 57.7219C312.61 59.4852 313.169 61.5424 313.169 63.8935C313.169 66.5972 312.434 69.0365 310.965 71.2112C309.554 73.386 307.438 75.1199 304.617 76.413C301.854 77.7061 298.386 78.3527 294.213 78.3527Z" fill="black"/>
<circle cx="88.6176" cy="60.8207" r="7.60259" fill="black"/>
<circle cx="150.626" cy="60.8207" r="7.60259" fill="black"/>
<path d="M68.8287 90.4373C68.417 88.3019 68.9903 87.084 70.5485 86.7835C71.3565 86.6278 72.167 86.9504 72.9799 87.7514C75.7384 90.5717 78.8433 93.3252 82.2944 96.012C85.6989 98.7676 89.5095 101.146 93.7262 103.146C97.9429 105.147 102.602 106.493 107.704 107.185C112.875 107.924 118.577 107.693 124.81 106.491C129.427 105.601 133.528 104.362 137.112 102.773C140.766 101.23 143.942 99.5405 146.64 97.7033C149.408 95.9127 151.766 94.1711 153.714 92.4786C155.673 90.8437 157.291 89.4544 158.567 88.3105C159.912 87.2132 160.959 86.5922 161.71 86.4476C162.287 86.3363 162.811 86.4149 163.282 86.6832C163.81 86.9405 164.174 87.5886 164.375 88.6274C164.597 89.7817 163.951 91.5525 162.436 93.9397C160.921 96.3269 158.546 98.9098 155.31 101.689C152.132 104.456 148.085 107.062 143.169 109.506C138.253 111.951 132.477 113.813 125.839 115.092C121.049 116.016 116.109 116.16 111.018 115.525C105.927 114.891 100.973 113.721 96.1546 112.016C91.3364 110.311 86.9588 108.252 83.0216 105.838C79.0844 103.425 75.8687 100.872 73.3744 98.1807C70.8224 95.5002 69.3071 92.919 68.8287 90.4373Z" fill="black"/>
</svg>
