<svg width="254" height="110" viewBox="0 0 254 110" fill="none" xmlns="http://www.w3.org/2000/svg">
<circle cx="68.913" cy="43.7845" r="14.0872" fill="white"/>
<circle cx="117.837" cy="42.6423" r="14.0872" fill="white"/>
<path d="M23.878 62.2826C20.1103 62.2826 16.7429 61.4348 13.7758 59.7394C10.8558 57.9968 8.54804 55.6655 6.85256 52.7455C5.20418 49.7784 4.37999 46.4346 4.37999 42.7139C4.37999 38.8991 5.20418 35.5081 6.85256 32.541C8.50095 29.574 10.7616 27.2662 13.6345 25.6178C16.5074 23.9224 19.8041 23.0746 23.5248 23.0746C26.3035 23.0746 28.8467 23.6162 31.1544 24.6995C33.4622 25.7356 35.5344 27.3133 37.3712 29.4327C38.0305 30.1862 38.266 30.9633 38.0776 31.7639C37.8893 32.5646 37.3712 33.271 36.5235 33.8833C35.8641 34.3543 35.1341 34.5191 34.3335 34.3778C33.5328 34.1894 32.8028 33.7656 32.1435 33.1062C29.8357 30.6572 26.9628 29.4327 23.5248 29.4327C21.1228 29.4327 19.0035 29.9978 17.1667 31.1281C15.33 32.2114 13.8935 33.742 12.8574 35.7201C11.8213 37.6981 11.3032 40.0294 11.3032 42.7139C11.3032 45.2571 11.8213 47.5178 12.8574 49.4958C13.9406 51.4739 15.4242 53.0516 17.308 54.2291C19.1919 55.3594 21.3819 55.9245 23.878 55.9245C25.5264 55.9245 26.9628 55.7361 28.1873 55.3594C29.459 54.9355 30.6128 54.2997 31.6489 53.452C32.4025 52.8397 33.1796 52.51 33.9802 52.4629C34.7809 52.3687 35.4873 52.5807 36.0996 53.0987C36.9002 53.7581 37.3476 54.5116 37.4418 55.3594C37.536 56.16 37.2534 56.89 36.5941 57.5494C33.2031 60.7048 28.9644 62.2826 23.878 62.2826ZM68.779 62.2826C64.9641 62.2826 61.5967 61.4584 58.6767 59.81C55.7567 58.1145 53.449 55.8068 51.7535 52.8868C50.1051 49.9197 49.2809 46.5288 49.2809 42.7139C49.2809 38.852 50.1051 35.461 51.7535 32.541C53.449 29.574 55.7567 27.2662 58.6767 25.6178C61.5967 23.9224 64.9641 23.0746 68.779 23.0746C72.5467 23.0746 75.8905 23.9224 78.8105 25.6178C81.7305 27.2662 84.0147 29.574 85.6631 32.541C87.3586 35.461 88.2063 38.852 88.2063 42.7139C88.2063 46.5288 87.3821 49.9197 85.7337 52.8868C84.0854 55.8068 81.8012 58.1145 78.8812 59.81C75.9612 61.4584 72.5938 62.2826 68.779 62.2826ZM68.779 55.9245C71.228 55.9245 73.3944 55.3594 75.2783 54.2291C77.1622 53.0987 78.6222 51.5445 79.6583 49.5665C80.7415 47.5884 81.2831 45.3042 81.2831 42.7139C81.2831 40.1236 80.7415 37.8394 79.6583 35.8614C78.6222 33.8362 77.1622 32.2585 75.2783 31.1281C73.3944 29.9978 71.228 29.4327 68.779 29.4327C66.3299 29.4327 64.1635 29.9978 62.2796 31.1281C60.3957 32.2585 58.9122 33.8362 57.829 35.8614C56.7458 37.8394 56.2041 40.1236 56.2041 42.7139C56.2041 45.3042 56.7458 47.5884 57.829 49.5665C58.9122 51.5445 60.3957 53.0987 62.2796 54.2291C64.1635 55.3594 66.3299 55.9245 68.779 55.9245ZM118.923 62.2826C115.108 62.2826 111.741 61.4584 108.821 59.81C105.901 58.1145 103.593 55.8068 101.898 52.8868C100.249 49.9197 99.4251 46.5288 99.4251 42.7139C99.4251 38.852 100.249 35.461 101.898 32.541C103.593 29.574 105.901 27.2662 108.821 25.6178C111.741 23.9224 115.108 23.0746 118.923 23.0746C122.691 23.0746 126.035 23.9224 128.955 25.6178C131.875 27.2662 134.159 29.574 135.807 32.541C137.503 35.461 138.35 38.852 138.35 42.7139C138.35 46.5288 137.526 49.9197 135.878 52.8868C134.229 55.8068 131.945 58.1145 129.025 59.81C126.105 61.4584 122.738 62.2826 118.923 62.2826ZM118.923 55.9245C121.372 55.9245 123.539 55.3594 125.422 54.2291C127.306 53.0987 128.766 51.5445 129.802 49.5665C130.886 47.5884 131.427 45.3042 131.427 42.7139C131.427 40.1236 130.886 37.8394 129.802 35.8614C128.766 33.8362 127.306 32.2585 125.422 31.1281C123.539 29.9978 121.372 29.4327 118.923 29.4327C116.474 29.4327 114.308 29.9978 112.424 31.1281C110.54 32.2585 109.056 33.8362 107.973 35.8614C106.89 37.8394 106.348 40.1236 106.348 42.7139C106.348 45.3042 106.89 47.5884 107.973 49.5665C109.056 51.5445 110.54 53.0987 112.424 54.2291C114.308 55.3594 116.474 55.9245 118.923 55.9245ZM155.857 62C154.82 62 153.949 61.6703 153.243 61.011C152.583 60.3045 152.254 59.4332 152.254 58.3971V26.9601C152.254 25.8769 152.583 25.0056 153.243 24.3462C153.949 23.6869 154.82 23.3572 155.857 23.3572C156.94 23.3572 157.811 23.6869 158.47 24.3462C159.13 25.0056 159.46 25.8769 159.46 26.9601V58.3971C159.46 59.4332 159.13 60.3045 158.47 61.011C157.811 61.6703 156.94 62 155.857 62ZM155.857 17.0698C154.585 17.0698 153.478 16.6224 152.536 15.7275C151.641 14.7856 151.194 13.6788 151.194 12.4072C151.194 11.1356 151.641 10.0524 152.536 9.15756C153.478 8.21563 154.585 7.74466 155.857 7.74466C157.128 7.74466 158.211 8.21563 159.106 9.15756C160.048 10.0524 160.519 11.1356 160.519 12.4072C160.519 13.6788 160.048 14.7856 159.106 15.7275C158.211 16.6224 157.128 17.0698 155.857 17.0698ZM193.493 62.2826C189.584 62.2826 186.099 61.4584 183.038 59.81C180.024 58.1145 177.645 55.8068 175.903 52.8868C174.207 49.9197 173.359 46.5288 173.359 42.7139C173.359 38.852 174.16 35.461 175.761 32.541C177.41 29.574 179.67 27.2662 182.543 25.6178C185.416 23.9224 188.713 23.0746 192.434 23.0746C196.107 23.0746 199.263 23.8988 201.9 25.5472C204.537 27.1485 206.539 29.3856 207.905 32.2585C209.318 35.0843 210.024 38.3575 210.024 42.0781C210.024 42.973 209.718 43.7265 209.106 44.3388C208.494 44.9039 207.716 45.1865 206.775 45.1865H178.305V39.5349H206.563L203.666 41.513C203.619 39.1581 203.148 37.0623 202.253 35.2256C201.358 33.3417 200.087 31.8581 198.438 30.7749C196.79 29.6917 194.788 29.1501 192.434 29.1501C189.749 29.1501 187.441 29.7388 185.51 30.9162C183.627 32.0936 182.19 33.7185 181.201 35.7907C180.212 37.8159 179.717 40.1236 179.717 42.7139C179.717 45.3042 180.306 47.612 181.484 49.6371C182.661 51.6623 184.286 53.2636 186.358 54.441C188.43 55.6184 190.809 56.2071 193.493 56.2071C194.953 56.2071 196.437 55.9481 197.944 55.43C199.498 54.8649 200.746 54.2291 201.688 53.5226C202.395 53.0045 203.148 52.7455 203.949 52.7455C204.796 52.6984 205.526 52.9339 206.139 53.452C206.939 54.1584 207.363 54.9355 207.41 55.7832C207.457 56.631 207.081 57.361 206.28 57.9732C204.679 59.2448 202.677 60.281 200.275 61.0816C197.92 61.8823 195.66 62.2826 193.493 62.2826ZM235.746 62.2826C232.449 62.2826 229.388 61.7881 226.562 60.799C223.783 59.7629 221.617 58.4678 220.062 56.9136C219.356 56.16 219.05 55.3123 219.144 54.3703C219.285 53.3813 219.756 52.5807 220.557 51.9684C221.499 51.2149 222.417 50.9087 223.312 51.05C224.254 51.1442 225.055 51.5445 225.714 52.251C226.515 53.1458 227.786 53.9936 229.529 54.7942C231.319 55.5478 233.297 55.9245 235.463 55.9245C238.195 55.9245 240.267 55.4771 241.68 54.5823C243.14 53.6874 243.893 52.5336 243.94 51.1207C243.988 49.7078 243.305 48.4833 241.892 47.4471C240.526 46.411 238.006 45.5633 234.333 44.9039C229.576 43.962 226.114 42.5491 223.948 40.6652C221.829 38.7814 220.769 36.4736 220.769 33.742C220.769 31.3401 221.475 29.362 222.888 27.8078C224.301 26.2065 226.114 25.0291 228.328 24.2756C230.541 23.4749 232.849 23.0746 235.251 23.0746C238.359 23.0746 241.115 23.5691 243.517 24.5582C245.918 25.5472 247.826 26.913 249.239 28.6556C249.898 29.4091 250.204 30.2098 250.157 31.0575C250.11 31.8581 249.71 32.541 248.956 33.1062C248.203 33.6243 247.308 33.7891 246.272 33.6007C245.236 33.4123 244.364 32.9885 243.658 32.3291C242.48 31.1988 241.209 30.4217 239.843 29.9978C238.477 29.574 236.899 29.362 235.11 29.362C233.038 29.362 231.271 29.7152 229.811 30.4217C228.399 31.1281 227.692 32.1643 227.692 33.5301C227.692 34.3778 227.904 35.1549 228.328 35.8614C228.799 36.5207 229.694 37.133 231.012 37.6981C232.331 38.2162 234.262 38.7343 236.805 39.2523C240.338 39.9588 243.116 40.8536 245.141 41.9368C247.214 43.02 248.697 44.2917 249.592 45.7517C250.487 47.1646 250.934 48.8129 250.934 50.6968C250.934 52.8632 250.346 54.8178 249.168 56.5603C248.038 58.3029 246.342 59.6923 244.082 60.7284C241.868 61.7645 239.089 62.2826 235.746 62.2826Z" fill="#FFC91E"/>
<circle cx="71.007" cy="48.7341" r="6.09176" fill="#121011"/>
<circle cx="120.693" cy="48.7341" r="6.09176" fill="#121011"/>
<path d="M55.6598 72.367C55.33 70.6559 55.7893 69.68 57.0379 69.4393C57.6854 69.3144 58.3348 69.573 58.9861 70.2148C61.1965 72.4746 63.6843 74.681 66.4496 76.8338C69.1775 79.0418 72.2309 80.9473 75.6096 82.5502C78.9883 84.1531 82.7217 85.2319 86.8097 85.7868C90.9528 86.379 95.5216 86.1936 100.516 85.2307C104.216 84.5174 107.502 83.5242 110.374 82.251C113.301 81.0151 115.846 79.6611 118.008 78.189C120.226 76.7542 122.115 75.3588 123.676 74.0026C125.246 72.6926 126.543 71.5794 127.565 70.6628C128.643 69.7835 129.482 69.286 130.083 69.1701C130.546 69.0809 130.965 69.1438 131.343 69.3589C131.766 69.565 132.058 70.0843 132.219 70.9167C132.397 71.8416 131.879 73.2605 130.665 75.1733C129.451 77.0861 127.548 79.1557 124.955 81.3823C122.409 83.5999 119.166 85.6879 115.227 87.6465C111.288 89.6051 106.659 91.097 101.341 92.1223C97.5028 92.8623 93.5441 92.978 89.465 92.4694C85.386 91.9608 81.4161 91.0235 77.5554 89.6574C73.6948 88.2913 70.187 86.6413 67.0323 84.7075C63.8775 82.7736 61.3009 80.7283 59.3022 78.5715C57.2574 76.4237 56.0432 74.3555 55.6598 72.367Z" fill="#FFC91E"/>
</svg>
